<svg
  width="690"
  height="237"
  viewBox="0 0 690 237"
  fill="none"
  xmlns="http://www.w3.org/2000/svg"
>
<path
    fill-rule="evenodd"
    clip-rule="evenodd"
    d="M228.137 193.118H219.578C213.739 193.118 208.94 197.917 208.94 203.756V221.034C208.94 226.873 204.141 231.672 198.302 231.672H146.07C140.231 231.672 135.431 226.873 135.431 221.034V203.756C135.431 197.917 130.632 193.118 124.793 193.118H29.5276C23.6885 193.118 18.8892 188.319 18.8892 182.479V148.325C18.8892 146.165 19.5291 144.085 20.8089 142.246L111.035 11.5456C113.035 8.66608 116.314 6.98633 119.754 6.98633H171.986C180.464 6.98633 185.584 16.4249 180.864 23.5438L118.074 117.929C113.355 124.968 118.474 134.487 126.953 134.487C132.792 134.487 137.591 129.688 137.591 123.848V110.81C137.591 104.971 142.39 100.172 148.229 100.172H198.222C204.061 100.172 208.86 104.971 208.86 110.81V123.848C208.86 129.688 213.659 134.487 219.498 134.487H228.057C233.896 134.487 238.696 139.286 238.696 145.125V182.559C238.776 188.399 234.056 193.118 228.137 193.118Z"
    fill="#F0F0F0"
  />
<path
    fill-rule="evenodd"
    clip-rule="evenodd"
    d="M298.367 222.793C283.089 213.515 271.091 199.997 262.372 182.319C253.734 164.642 249.334 143.605 249.334 119.209C249.334 94.8127 253.654 73.7759 262.372 56.0986C271.011 38.4214 283.009 24.9834 298.367 15.6248C313.645 6.34623 331.242 1.62695 351.159 1.62695C371.076 1.62695 388.673 6.26624 403.951 15.6248C419.228 24.9034 431.227 38.4214 439.945 56.0986C448.584 73.7759 452.983 94.8127 452.983 119.209C452.983 143.605 448.664 164.642 439.945 182.319C431.307 199.997 419.308 213.435 403.951 222.793C388.673 232.072 371.076 236.791 351.159 236.791C331.242 236.791 313.645 232.152 298.367 222.793ZM376.835 119.289C376.835 81.3748 368.276 62.4977 351.159 62.4977C334.041 62.4977 325.483 81.4548 325.483 119.289C325.483 157.123 334.041 176.08 351.159 176.08C368.276 176.08 376.835 157.203 376.835 119.289Z"
    fill="#F0F0F0"
  />
<path
    fill-rule="evenodd"
    clip-rule="evenodd"
    d="M678.868 193.118H670.309C664.47 193.118 659.671 197.917 659.671 203.756V221.034C659.671 226.873 654.872 231.672 649.033 231.672H596.801C590.962 231.672 586.162 226.873 586.162 221.034V203.756C586.162 197.917 581.363 193.118 575.524 193.118H480.259C474.419 193.118 469.62 188.319 469.62 182.479V148.325C469.62 146.165 470.26 144.085 471.54 142.246L561.766 11.5456C563.766 8.66608 567.045 6.98633 570.485 6.98633H622.717C631.195 6.98633 636.315 16.4249 631.595 23.5438L568.805 117.929C564.086 124.968 569.205 134.487 577.684 134.487C583.523 134.487 588.322 129.688 588.322 123.848V110.81C588.322 104.971 593.121 100.172 598.96 100.172H648.953C654.792 100.172 659.591 104.971 659.591 110.81V123.848C659.591 129.688 664.39 134.487 670.229 134.487H678.788C684.627 134.487 689.426 139.286 689.426 145.125V182.559C689.506 188.399 684.707 193.118 678.868 193.118Z"
    fill="#F0F0F0"
  />
<path
    fill-rule="evenodd"
    clip-rule="evenodd"
    d="M209.82 191.997H201.261C195.422 191.997 190.623 196.796 190.623 202.635V219.912C190.623 225.751 185.824 230.551 179.985 230.551H127.753C121.914 230.551 117.114 225.751 117.114 219.912V202.635C117.114 196.796 112.315 191.997 106.476 191.997H11.2106C5.37147 191.997 0.572266 187.197 0.572266 181.358V147.124C0.572266 144.964 1.21209 142.884 2.49189 141.044L92.7181 10.3445C94.7178 7.46491 97.9973 5.78516 101.437 5.78516H153.669C162.147 5.78516 167.267 15.2237 162.547 22.3426L99.7571 116.728C95.0378 123.767 100.157 133.286 108.636 133.286C114.475 133.286 119.274 128.486 119.274 122.647V109.609C119.274 103.77 124.073 98.9709 129.912 98.9709H179.905C185.744 98.9709 190.543 103.77 190.543 109.609V122.647C190.543 128.486 195.342 133.286 201.181 133.286H209.74C215.579 133.286 220.379 138.085 220.379 143.924V181.358C220.459 187.197 215.659 191.997 209.82 191.997Z"
    fill="#98C1FF"
  />
<path
    fill-rule="evenodd"
    clip-rule="evenodd"
    d="M279.969 221.673C264.691 212.394 252.693 198.876 243.974 181.199C235.336 163.522 230.937 142.485 230.937 118.089C230.937 93.6926 235.256 72.6558 243.974 54.9785C252.613 37.3012 264.611 23.8633 279.969 14.5047C295.247 5.22611 312.844 0.506836 332.761 0.506836C352.678 0.506836 370.275 5.14613 385.553 14.5047C400.83 23.7833 412.829 37.3012 421.547 54.9785C430.186 72.6558 434.585 93.6926 434.585 118.089C434.585 142.485 430.266 163.522 421.547 181.199C412.909 198.876 400.91 212.314 385.553 221.673C370.275 230.952 352.678 235.671 332.761 235.671C312.924 235.671 295.327 230.952 279.969 221.673ZM358.517 118.169C358.517 80.2546 349.958 61.3775 332.841 61.3775C315.723 61.3775 307.165 80.3346 307.165 118.169C307.165 156.003 315.723 174.96 332.841 174.96C349.958 174.96 358.517 156.003 358.517 118.169Z"
    fill="#98C1FF"
  />
<path
    fill-rule="evenodd"
    clip-rule="evenodd"
    d="M660.551 191.997H651.992C646.153 191.997 641.354 196.796 641.354 202.635V219.912C641.354 225.751 636.555 230.551 630.716 230.551H578.484C572.645 230.551 567.845 225.751 567.845 219.912V202.635C567.845 196.796 563.046 191.997 557.207 191.997H461.942C456.102 191.997 451.303 187.197 451.303 181.358V147.124C451.303 144.964 451.943 142.884 453.223 141.044L543.529 10.3445C545.529 7.46491 548.808 5.78516 552.248 5.78516H604.48C612.958 5.78516 618.078 15.2237 613.358 22.3426L550.568 116.728C545.849 123.767 550.968 133.286 559.447 133.286C565.286 133.286 570.085 128.486 570.085 122.647V109.609C570.085 103.77 574.884 98.9709 580.723 98.9709H630.716C636.555 98.9709 641.354 103.77 641.354 109.609V122.647C641.354 128.486 646.153 133.286 651.992 133.286H660.551C666.39 133.286 671.189 138.085 671.189 143.924V181.358C671.189 187.197 666.39 191.997 660.551 191.997Z"
    fill="#98C1FF"
  />
</svg>
