<svg
  width="524"
  height="348"
  viewBox="0 0 524 348"
  fill="none"
  xmlns="http://www.w3.org/2000/svg"
>
<g opacity="0.3">
<path
      d="M178.456 160.535L169.962 161.504L162.061 166.51C159.615 160.804 162.706 150.818 162.706 150.818L161.308 147.857L157.223 153.725C150.826 156.982 151.579 162.554 151.579 162.554L149.643 165.111L147.009 158.543C147.009 158.543 138.624 162.5 138.328 162.634C138.032 162.769 131.931 174.047 131.743 174.37C131.555 174.693 134.538 175.608 134.538 175.608L139.645 168.664L145.531 165.084L148.246 167.641L145.934 171.651L148.111 174.828L152.304 172.863L154.508 175.097L158.97 171.248L161.416 177.923L152.815 184.194L146.176 193.05L142.521 186.832L132.765 196.98L137.334 206.724C137.334 206.724 126.852 211.649 126.422 211.865C125.992 212.08 125.562 226.534 125.562 226.534L121.772 229.226L126.502 239.266L115.59 267.878L124.245 283.866L125.857 293.206L120.428 291.026L110.94 276.41L107.742 277.272L104.866 272.911C104.866 272.911 95.6474 278.241 95.2442 278.429C94.8411 278.617 96.0774 282.278 96.0774 282.278L93.2016 283.785L90.0569 279.883L84.1709 283.624L80.4081 295.36L84.4128 304.242L92.7984 325.91L104.275 336.488L110.591 331.212L105.941 321.334L114.354 317.377L119.057 324.295L117.848 331.051L124.379 344.94L131.716 343.917L132.496 341.091L142.521 345.962H109.328L108.71 345.613L107.984 345.962H92.879L89.3582 344.428L72.6406 313.394L58.8527 288.577L58.2883 292.399L69.7648 317.835L66.5127 317L50.5477 279.237C37.1898 213.453 53.101 145.731 92.1534 93.136L96.0774 94.428L102.555 83.7422L112.257 79.5163L114.864 73.1909C114.864 73.1909 125.293 72.3296 125.723 72.1412C126.126 71.9527 117.74 76.7439 117.74 76.7439L112.714 86.5684L109.086 86.4069L105.35 98.3578L97.2331 103.041L98.0126 105.06L107.124 102.476L113.332 94.4549L114.354 99.892L116.692 99.4614L119.111 95.2624L120.079 86.1646L127.335 80.7275L135.425 77.7667L137.764 83.4461L142.306 82.3156L144.134 86.5415L141.285 88.3987L149.294 91.4134L150.396 93.782L147.896 95.6392L149.106 98.95L144.322 101.023L142.682 97.9002L139.43 99.273L144.456 109.609L138.489 113.108L132.738 112.758L128.491 109.501L122.256 112.085L122.041 106.944L128.222 103.876L133.678 96.3929L132.523 93.5397L127.712 99.8651L128.814 91.0365L122.713 93.9166L122.256 101.938L118.17 106.567L114.623 105.518L112.849 107.886L115.698 109.259L119.138 114.427L115.725 116.876L114.112 115.611L109.892 117.442L108.199 116.365C92.6103 127.428 90.5676 146.161 90.5676 146.161L97.8513 151.195L104.893 148.557L109.14 160.454L107.339 161.638C107.339 161.638 109.22 165.999 109.408 166.43C109.597 166.86 112.177 165.811 112.58 165.622C112.983 165.434 110.914 148.772 110.914 148.772C110.914 148.772 114.219 148.584 114.676 148.53C115.16 148.476 119.407 142.393 119.407 142.393L115.348 134.13L120.374 119.218L126.018 115.719L130.346 118.437L134.189 118.653L135.721 120.133L132.254 124.978L132.469 127.939L140.129 125.866L141.096 119.649L143.596 117.792L150.611 133.511C150.611 133.511 154.696 131.573 154.992 131.438C155.288 131.304 164.345 135.772 164.345 135.772L166.737 138.14L165.42 149.714L175.687 152.46L178.456 160.535Z"
      fill="url(#paint0_linear_198_3532)"
    />
<path
      d="M181.923 342.437L183.804 346.016H177.408L177.73 344.428L181.923 342.437Z"
      fill="url(#paint1_linear_198_3532)"
    />
<path
      d="M190.389 342.275L194.851 346.017H187.755L187.647 345.532L190.389 342.275Z"
      fill="url(#paint2_linear_198_3532)"
    />
<path
      d="M201.382 343.997L206.354 346.016H198.264L201.382 343.997Z"
      fill="url(#paint3_linear_198_3532)"
    />
<path
      d="M222.158 343.082L223.555 346.016H208.235L208.101 340.606L211.434 338.614L217.992 341.413L220.411 340.498L218.476 336.38L219.82 334.119L224.281 341.306L222.158 343.082Z"
      fill="url(#paint4_linear_198_3532)"
    />
<path
      d="M230.113 344.159C230.221 344.105 231.86 344.939 233.957 346.016H224.012C225.356 345.612 229.871 344.266 230.113 344.159Z"
      fill="url(#paint5_linear_198_3532)"
    />
</g>
<g opacity="0.3">
<path
      d="M185.309 90.2025L180.632 92.4096L183.858 99.2733L181.761 100.269L182.944 102.772L178.59 104.818L175.23 100.673L174.209 102.934L172.247 103.768L166.737 100.027C166.737 100.027 164.882 96.2587 164.882 96.0703C164.882 95.8819 165.124 92.4096 165.124 92.4096L161.012 92.8672L159.05 88.6682L162.141 84.9538L161.63 79.8665L158.298 80.5395L157.384 71.6839L160.475 69.6383L156.9 63.5282L152.841 64.9548L151.175 64.1473L147.251 65.224L147.144 61.025L156.873 53.4346L162.007 43.5562L168.538 40.4877L172.3 31.9014L180.982 36.208L184.099 34.1354C184.099 34.1354 190.711 41.4836 190.98 41.4567C191.249 41.4298 199.231 46.4363 199.231 46.4363L199.715 49.1548L195.952 51.0121C195.952 51.0121 203.451 55.857 203.209 55.9916C202.967 56.0993 202.456 57.9296 202.456 57.9296C202.456 57.9296 194.017 55.2918 194.286 55.6686C194.555 56.0455 196.302 58.6833 196.92 58.764C197.565 58.8717 201.623 60.7828 201.623 60.7828C201.623 60.7828 198.371 66.4621 198.129 66.5698C197.887 66.6775 190.577 70.8226 190.577 70.8226L192.082 77.8209L182.567 83.3926L185.309 90.2025Z"
      fill="url(#paint6_linear_198_3532)"
    />
</g>
<path
    d="M119.541 311.106L123.492 307.715C123.492 307.715 122.363 305.723 122.551 305.696C122.739 305.669 129.808 302.466 129.808 302.466L132.2 304.35L140.72 307.311L150.369 308.118L153.621 313.475L146.445 316.435L140.021 311.025C140.021 311.025 132.845 308.253 132.684 308.226C132.523 308.199 123.949 313.152 123.949 313.152L119.541 311.106Z"
    fill="#D2D9E1"
  />
<path
    d="M134.269 297.244C134.216 297.109 132.065 293.099 132.065 293.099L137.038 290.757L138.758 293.556L136.527 295.683L137.118 297.809L134.269 297.244Z"
    fill="#D2D9E1"
  />
<path
    d="M150.262 332.639L152.358 332.262L153.353 333.42L155.1 331.778L153.03 325.614L149.429 323.191L147.628 324.51L147.655 327.633L150.262 332.639Z"
    fill="#D2D9E1"
  />
<path
    d="M157.25 318.427L159.561 316.354L160.824 310.056L167.758 306.557L171.978 308.387L174.451 307.983L178.886 315.358L173.618 317.835L169.774 318.131L166.764 321.065L162.517 318.777L160.098 321.307L157.25 318.427Z"
    fill="#D2D9E1"
  />
<path
    d="M182.057 309.868L181.385 308.415L184.879 307.042L186.169 308.818L188.588 310.137L189.744 312.614L185.659 316.409L181.735 314.282L182.057 309.868Z"
    fill="#D2D9E1"
  />
<g opacity="0.3">
<path
      d="M504.206 250.544L504.421 287.339L490.068 327.552L481.226 346.017H463.406L471.362 325.318C471.362 325.318 471.443 288.119 471.201 287.581C470.932 287.043 460.531 264.891 460.531 264.891L462.573 246.345L458.461 240.37L455.182 239.939L451.796 250.975L444.189 245.645L439.244 239.158L434.191 243.088L432.928 256.95L426.209 261.58L414.866 266.586L413.523 275.361L411.023 276.653L396.268 268.228L391.51 261.661L369.821 256.493L362.187 241.904L363.988 233.91L356.92 221.959L352.082 220.451L346.438 205.136L346.411 176.712L350.55 167.668L342.164 147.077L358.102 125.14L368.853 105.007L381.539 99.0312L389.629 104.118L389.091 111.251L398.928 113.835L406.131 110.551L416.99 114.293L421.29 112.14L419.866 103.338L416.103 99.3273L422.204 95.7474L423.924 89.8527L426.504 90.068L430.428 99.9194L434.406 105.141L431.208 94.59L434.702 92.006L432.793 85.4384L419.892 71.7917L416.694 73.299L418.495 77.4173L412.636 79.0053L406.911 76.1522L399.52 73.972L393.392 68.2388L393.419 68.158V68.1311L393.445 68.0234L393.499 67.8888C393.768 67.2159 394.359 65.6279 394.87 64.2013L394.924 64.0667C395.381 62.8016 395.73 61.698 395.676 61.5904C395.542 61.2943 392.908 54.9689 392.908 54.9689L396.966 53.5424L401.992 55.4265L403.793 52.2234L397.853 42.6143L414.974 56.3417L428.977 57.8759L465.1 97.0663L486.064 132.515L490.714 156.309L478.484 136.095L473.7 123.983L457.305 109.556L447.388 100.431L449.377 106.595L466.981 125.544L482.382 148.261L495.793 171.383L508.829 204.49L504.098 233.802L500.416 224.812L497.782 215.337L498.347 228.876L500.389 232.456L499.341 242.577L504.206 250.544Z"
      fill="url(#paint7_linear_198_3532)"
    />
</g>
<g opacity="0.3">
<path
      d="M391.053 44.5521L375.653 41.1337L384.28 48.9664L382.372 49.8815L372.427 44.7674L377.023 50.689L383.984 58.8716L394.923 64.0665L394.87 64.2011L393.391 68.1578L393.365 68.2386L390.516 69.5844L392.666 74.1602L400.057 76.6096L405.459 88.1029L403.202 89.9333L394.682 80.7817L382.345 75.7483L378.985 71.2532L360.682 67.6733L353.157 71.2263L364.66 75.4791L380.517 77.0672L387.29 84.4961L390.086 86.138V88.4798L375.894 84.55L359.419 78.2784L351.571 79.1667L351.678 83.0157L352.941 85.7074L347.324 88.3452L342.325 88.6682L345.927 93.6747L348.587 93.3517L350.308 97.6852L345.712 100.485L346.088 108.129L350.926 111.574L351.221 119.03L348.534 123.929L343.83 126.97L344.986 131.196L342.003 132.596L337.783 130.227L332.649 132.542L319.856 124.117L311.739 106.837L325.823 99.8924L327.489 91.9251L318.028 86.4072L308.729 89.1258L306.552 85.6266L315.502 72.4106L311.927 65.4662C311.927 65.4662 314.319 62.1555 314.185 61.9132C314.077 61.6441 310.368 57.5797 310.503 57.2028C310.637 56.826 313.862 53.5422 313.862 53.5422L302.036 46.7054L316.496 48.9933L322.866 42.3988C322.866 42.3988 328.537 39.734 328.241 39.7609C327.946 39.7879 314.695 38.7112 315.367 28.16L312.438 28.3484C312.438 28.3484 313.405 24.6608 313.62 24.4724C313.835 24.284 309.884 22.1037 309.884 22.1037L304.643 26.3027L306.041 29.4789C306.041 29.4789 303.649 29.9095 303.515 29.6673C303.407 29.425 289.431 22.9382 289.431 22.9382L279.809 19.9504L281.341 23.8533L290.076 27.2717L291.877 30.6363L298.919 31.1208L312.975 37.9575L315.018 44.8482L301.23 41.995L296.768 41.4836L295.962 43.1793L300.343 48.0512L297.252 50.0161L273.412 34.3238L253.765 18.3623L269.811 14.7286L277.498 10.7988L287.765 14.8901L294.672 12.9521L274.111 5.25402L304.187 0.462891C324.936 2.69696 345.228 7.70342 364.552 15.2939L378.287 24.1225L380.249 34.9698L397.853 42.6949L403.793 52.304L391.053 44.5521Z"
      fill="url(#paint8_linear_198_3532)"
    />
</g>
<path
    d="M378.609 91.9519L384.791 89.0449L387.693 90.956L389.817 91.2521L391.671 95.2088L388.876 96.5277L386.108 93.7015L381.162 94.0514L378.609 91.9519Z"
    fill="#D2D9E1"
  />
<path
    d="M361.435 89.0986L365.815 90.1215L368.208 89.5293L370.25 94.4281L367.079 96.3123C367.079 96.3123 366.031 93.8359 365.789 93.9436C365.574 94.0513 363.907 94.2935 363.907 94.2935L363.101 91.3058L361.435 89.0986Z"
    fill="#D2D9E1"
  />
<path
    d="M354.205 99.7578L354.904 101.265L356.113 101.454L356.032 103.015L353.237 104.334L351.651 103.015C351.651 103.015 352.189 98.8696 352.35 99.0042C352.565 99.1388 354.205 99.7578 354.205 99.7578Z"
    fill="#D2D9E1"
  />
<path
    d="M310.96 72.8416L309.105 66.6508L304.993 67.2429L292.092 63.3131L286.018 62.5864L282.793 55.7227L275.697 56.7724L270.456 59.2487L272.203 62.9632L269.354 64.309L271.182 66.7853L277.74 67.9697C277.74 67.9697 285.615 70.7959 285.883 70.5536C286.152 70.2845 290.533 68.2388 290.533 68.2388L291.985 71.3073L290.506 74.4027C290.506 74.4027 295.29 81.4817 295.64 81.3202C295.962 81.1587 300.881 78.8439 300.881 78.8439L302.897 79.7591L306.955 76.7714L310.96 72.8416Z"
    fill="#D2D9E1"
  />
<path
    d="M283.787 71.7642L287.55 72.3832L288.786 74.9941L289.996 81.2388L287.523 84.8187L284.459 86.2452L279.03 79.4623L276.181 78.8163L275.375 75.7209L278.197 70.2568L283.787 71.7642Z"
    fill="#D2D9E1"
  />
<path
    d="M229.791 67.2424L231.054 62.0745L234.118 60.621L232.774 55.9375L227.076 56.0452L223.528 58.4676L224.335 60.2172L218.959 62.1283L217.051 60.7825L213.1 63.9317L215.546 66.5964L219.362 66.6233L220.545 67.9692L225.652 65.6813L229.791 67.2424Z"
    fill="#D2D9E1"
  />
<path
    opacity="0.3"
    d="M135.641 73.8376L131.045 75.9909L130.373 74.5912L125.965 77.5251L126.879 73.6222L130.91 65.628L132.523 60.4062L135.13 61.0522L133.248 67.5122L131.152 70.5807L135.963 69.9078L135.641 73.8376Z"
    fill="url(#paint9_linear_198_3532)"
  />
<path
    d="M193.184 346.017H196.651L194.689 347.282L193.184 346.017Z"
    fill="#D2D9E1"
  />
<path
    d="M206.837 346.017L206.864 346.797L204.929 346.017H206.837Z"
    fill="#D2D9E1"
  />
<path
    d="M222.454 346.017H222.911C222.669 346.097 222.507 346.124 222.507 346.124L222.454 346.017Z"
    fill="#D2D9E1"
  />
<path
    d="M454.59 96.6895L514.902 96.8779C519.498 96.9048 523.234 100.646 523.207 105.249L523.127 127.374C523.1 131.923 519.472 135.611 514.956 135.691C514.956 137.468 515.386 140.348 517.859 142.259C517.859 142.259 512.215 141.721 509.796 135.691L454.483 135.53C449.887 135.503 446.151 131.762 446.178 127.159L446.259 105.034C446.232 100.404 449.968 96.6895 454.59 96.6895Z"
    fill="url(#paint10_linear_198_3532)"
  />
<path
    d="M503.802 115.881C503.802 116.931 504.635 117.765 505.683 117.765C506.731 117.765 507.565 116.931 507.565 115.881C507.565 114.831 506.731 113.997 505.683 113.997C504.635 113.997 503.802 114.831 503.802 115.881Z"
    fill="white"
  />
<path
    d="M489.798 115.828C489.798 116.877 490.632 117.712 491.68 117.712C492.728 117.712 493.561 116.877 493.561 115.828C493.561 114.778 492.728 113.943 491.68 113.943C490.658 113.97 489.798 114.805 489.798 115.828Z"
    fill="white"
  />
<path
    d="M475.796 115.8C475.796 116.85 476.629 117.684 477.677 117.684C478.725 117.684 479.559 116.85 479.559 115.8C479.559 114.75 478.725 113.916 477.677 113.916C476.656 113.916 475.796 114.75 475.796 115.8Z"
    fill="white"
  />
<path
    d="M461.793 115.746C461.793 116.796 462.626 117.631 463.674 117.631C464.723 117.631 465.556 116.796 465.556 115.746C465.556 114.697 464.723 113.862 463.674 113.862C462.626 113.862 461.793 114.724 461.793 115.746Z"
    fill="white"
  />
<path
    d="M68.9317 141.263L8.61961 141.451C4.02363 141.478 0.28772 145.22 0.314597 149.822L0.395229 171.948C0.422106 176.496 4.05051 180.184 8.56585 180.265C8.56585 182.041 8.13582 184.921 5.66313 186.832C5.66313 186.832 11.3073 186.294 13.7262 180.265L69.0392 180.103C73.6352 180.076 77.3711 176.335 77.3442 171.732L77.2636 149.607C77.2636 144.977 73.5277 141.236 68.9317 141.263Z"
    fill="url(#paint11_linear_198_3532)"
  />
<path
    d="M19.6934 160.454C19.6934 161.504 18.8603 162.339 17.8121 162.339C16.7639 162.339 15.9307 161.504 15.9307 160.454C15.9307 159.405 16.7639 158.57 17.8121 158.57C18.8603 158.57 19.6934 159.405 19.6934 160.454Z"
    fill="white"
  />
<path
    d="M33.6964 160.401C33.6964 161.45 32.8632 162.285 31.815 162.285C30.7668 162.285 29.9336 161.45 29.9336 160.401C29.9336 159.351 30.7668 158.517 31.815 158.517C32.8632 158.544 33.6964 159.378 33.6964 160.401Z"
    fill="white"
  />
<path
    d="M47.6993 160.373C47.6993 161.423 46.8661 162.258 45.8179 162.258C44.7697 162.258 43.9365 161.423 43.9365 160.373C43.9365 159.324 44.7697 158.489 45.8179 158.489C46.8661 158.489 47.6993 159.324 47.6993 160.373Z"
    fill="white"
  />
<path
    d="M61.7022 160.32C61.7022 161.369 60.869 162.204 59.8208 162.204C58.7726 162.204 57.9395 161.369 57.9395 160.32C57.9395 159.27 58.7726 158.436 59.8208 158.436C60.869 158.436 61.7022 159.297 61.7022 160.32Z"
    fill="white"
  />
<path
    d="M440.991 321.926C437.416 332.962 439.217 346.985 439.217 346.985L112.15 345.99C112.795 339.099 115.671 333.796 115.671 333.796C109.355 321.092 114.246 303.408 113.252 293.987C108.28 246.56 142.709 255.631 142.709 255.631C152.089 211.353 172.328 207.693 186.949 205.782C193.991 204.866 200.441 203.413 205.225 202.175C209.176 201.152 212.643 198.945 215.546 196.065C218.664 192.996 223.448 196.657 223.448 196.657C226.028 188.824 230.516 188.905 233.58 190.116C234.951 190.655 236.859 191.327 238.687 191.866C239.762 192.189 240.783 192.458 241.617 192.646C262.339 197.168 290.264 196.172 306.444 192.727C309.481 192.081 311.954 191.166 314.104 190.035C315.045 189.551 315.905 189.013 316.738 188.474C321.791 185.083 327.838 192.431 327.838 192.431C331.977 188.636 335.874 190.278 338.831 193.023C346.303 199.941 354.823 205.62 364.257 209.415C369.686 211.596 375.008 213.587 379.173 215.122C386 217.625 391.725 222.47 395.273 228.822C405.701 247.61 406.642 273.1 406.642 273.1C406.642 273.1 419.516 258.995 436.314 273.288C453.139 287.554 444.565 310.89 440.991 321.926Z"
    fill="url(#paint12_linear_198_3532)"
  />
<path
    d="M216.379 136.014C216.379 136.014 198.828 140.051 200.038 162.984C200.038 162.984 202.699 147.776 214.659 140.051C214.659 140.051 211.729 143.093 209.606 150.845C209.606 150.845 215.196 141.962 222.023 137.79C222.023 137.79 210.251 156.551 216.702 170.359L217.562 164.384C217.562 164.384 215.949 178.138 230.248 179.322C230.248 179.322 228.071 172.351 230.328 164.33C230.328 164.33 228.259 183.36 240.891 183.145C240.891 183.145 245.03 187.343 254.222 183.225L253.416 177.788C253.416 177.788 254.061 186.375 270.026 185.163C285.991 183.952 291.124 179.995 291.124 179.995C291.124 179.995 303.165 184.625 312.464 180.264C321.764 175.904 322.086 168.986 322.086 168.986C322.086 168.986 321.898 175.904 318.351 180.749C318.351 180.749 330.391 185.379 334.342 163.603C334.342 163.603 334.45 168.906 333.267 171.705C333.267 171.705 343.803 157.52 334.584 126.378C334.584 126.378 345.953 135.718 345.631 167.237C345.631 167.237 356.059 150.656 338.105 121.802C338.105 121.802 338.562 76.7975 314.749 55.9641C290.936 35.1308 253.469 42.2906 242.181 49.5849C230.893 56.8793 217.4 90.2019 217.696 107.617C217.965 125.086 216.379 136.014 216.379 136.014Z"
    fill="url(#paint13_linear_198_3532)"
  />
<path
    d="M308.514 190.17L308.809 137.925L244.68 137.548L244.358 191.973C244.331 194.476 241.993 196.28 239.574 195.661C239.198 195.58 238.902 195.472 238.687 195.418L238.633 204.624C238.499 225.511 255.404 235.793 276.288 235.847C297.118 235.901 313.916 225.538 314.05 204.678L314.104 193.615C314.077 193.615 314.077 193.642 314.05 193.642C311.524 194.934 308.487 193.05 308.514 190.17Z"
    fill="#FFC89F"
  />
<path
    d="M276.476 182.633C252.878 182.498 233.876 163.226 234.037 139.62L234.36 87.3752C234.494 63.7425 253.738 44.7126 277.309 44.8741C300.907 45.0086 319.909 64.2809 319.748 87.8866L319.426 140.132C319.318 163.737 300.074 182.767 276.476 182.633Z"
    fill="#FFC89F"
  />
<path
    d="M276.476 182.633C272.793 182.929 269.031 182.579 265.402 181.718C264.488 181.502 263.602 181.233 262.715 180.964C261.828 180.695 260.968 180.345 260.081 180.022C259.624 179.887 259.221 179.645 258.791 179.457L257.5 178.865C256.667 178.461 255.834 177.976 255.028 177.546C254.221 177.088 253.442 176.55 252.663 176.038C251.883 175.527 251.157 174.935 250.405 174.396C249.679 173.804 248.98 173.185 248.255 172.566C247.556 171.947 246.911 171.247 246.266 170.601C243.686 167.883 241.509 164.814 239.923 161.477C242.073 164.491 244.438 167.264 247.099 169.767C247.798 170.359 248.443 170.978 249.142 171.57C249.867 172.136 250.539 172.701 251.292 173.239C252.044 173.751 252.743 174.316 253.523 174.8C254.302 175.258 255.055 175.769 255.834 176.227C256.64 176.657 257.393 177.115 258.226 177.519C259.059 177.896 259.866 178.299 260.672 178.676C261.505 178.999 262.338 179.403 263.198 179.699L264.488 180.13C264.919 180.264 265.349 180.453 265.779 180.56C269.219 181.637 272.82 182.283 276.476 182.633Z"
    fill="#F3B78A"
  />
<path
    d="M314.776 159.322C314.184 161.206 313.297 162.983 312.276 164.652C312.007 165.082 311.739 165.486 311.47 165.89L310.61 167.101C310.314 167.505 309.992 167.882 309.696 168.259L308.728 169.389C307.384 170.843 305.906 172.161 304.321 173.319C302.735 174.476 301.042 175.499 299.214 176.253C300.692 174.961 302.143 173.696 303.541 172.404C304.939 171.112 306.283 169.739 307.573 168.339L308.54 167.29C308.863 166.94 309.158 166.563 309.481 166.213L310.395 165.109C310.69 164.732 310.986 164.356 311.282 163.979C312.491 162.471 313.62 160.91 314.776 159.322Z"
    fill="#F3B78A"
  />
<path
    d="M232.559 137.897H234.79C239.171 137.924 242.745 134.371 242.772 129.984L242.853 115.772C242.88 111.384 239.332 107.804 234.951 107.777H232.72C228.339 107.751 224.764 111.304 224.738 115.691L224.657 129.903C224.63 134.29 228.178 137.87 232.559 137.897Z"
    fill="#FFC89F"
  />
<path
    d="M318.726 138.435H320.957C325.338 138.462 328.913 134.909 328.94 130.522L329.02 116.31C329.047 111.922 325.499 108.342 321.118 108.316H318.887C314.507 108.289 310.932 111.842 310.905 116.229L310.824 130.441C310.797 134.801 314.345 138.408 318.726 138.435Z"
    fill="#FFC89F"
  />
<path
    d="M232.048 116.23C231.188 116.526 230.624 117.145 230.247 117.871C229.871 118.598 229.656 119.406 229.549 120.213C229.334 121.828 229.414 123.524 229.871 125.058C230.086 125.812 230.436 126.539 230.893 127.131C231.108 127.427 231.43 127.723 231.591 127.804C231.645 127.831 231.645 127.831 231.645 127.831L231.618 127.857C231.645 127.884 231.726 127.777 231.806 127.642C231.968 127.346 232.048 126.942 232.129 126.539C232.209 126.135 232.263 125.704 232.317 125.273C232.425 124.412 232.478 123.524 232.532 122.636C232.774 123.497 232.935 124.358 233.043 125.273C233.096 125.731 233.096 126.162 233.096 126.646C233.096 127.104 233.043 127.588 232.881 128.1C232.774 128.369 232.666 128.665 232.317 128.934C232.156 129.069 231.914 129.149 231.672 129.149C231.457 129.149 231.242 129.123 231.081 129.042C230.462 128.773 230.113 128.45 229.764 128.073C229.065 127.319 228.662 126.431 228.366 125.516C227.829 123.685 227.829 121.747 228.339 119.944C228.608 119.056 228.984 118.168 229.602 117.441C229.925 117.091 230.274 116.768 230.704 116.553C231.134 116.31 231.618 116.176 232.048 116.23Z"
    fill="#FF9A6C"
  />
<path
    d="M233.581 119.971C233.366 119.406 233.258 118.894 233.151 118.41C233.07 117.925 233.016 117.441 232.936 117.01C232.882 116.579 232.801 116.176 232.694 115.88C232.64 115.745 232.559 115.583 232.398 115.476C232.237 115.341 231.995 115.234 231.699 115.126C231.914 114.911 232.21 114.776 232.532 114.722C232.882 114.695 233.285 114.83 233.554 115.072C234.145 115.557 234.333 116.229 234.414 116.795C234.494 117.387 234.441 117.952 234.306 118.49C234.226 119.002 233.984 119.54 233.581 119.971Z"
    fill="#FF9A6C"
  />
<path
    d="M322.032 116.769C322.489 116.742 322.946 116.849 323.376 117.092C323.806 117.307 324.156 117.657 324.451 118.007C325.069 118.734 325.446 119.622 325.688 120.537C326.171 122.34 326.144 124.278 325.58 126.082C325.284 126.997 324.854 127.885 324.156 128.612C323.806 128.989 323.457 129.312 322.839 129.581C322.677 129.635 322.489 129.689 322.247 129.662C322.032 129.662 321.79 129.554 321.602 129.419C321.253 129.15 321.145 128.854 321.038 128.585C320.877 128.074 320.823 127.589 320.823 127.132C320.823 126.674 320.85 126.216 320.903 125.759C321.011 124.871 321.172 123.982 321.441 123.148C321.495 124.036 321.548 124.924 321.629 125.786C321.683 126.216 321.71 126.647 321.79 127.051C321.871 127.454 321.952 127.858 322.113 128.154C322.194 128.289 322.274 128.397 322.301 128.397L322.274 128.37C322.274 128.37 322.301 128.37 322.328 128.343C322.516 128.262 322.812 127.966 323.054 127.67C323.51 127.078 323.86 126.378 324.102 125.597C324.559 124.063 324.666 122.367 324.478 120.752C324.371 119.945 324.182 119.137 323.806 118.411C323.457 117.711 322.892 117.065 322.032 116.769Z"
    fill="#FF9A6C"
  />
<path
    d="M320.474 120.51C320.071 120.052 319.855 119.541 319.694 119.002C319.56 118.464 319.506 117.899 319.587 117.306C319.667 116.741 319.882 116.095 320.474 115.584C320.769 115.342 321.172 115.207 321.495 115.261C321.844 115.315 322.113 115.449 322.328 115.665C322.033 115.772 321.791 115.853 321.629 116.014C321.468 116.149 321.388 116.284 321.334 116.418C321.226 116.714 321.146 117.091 321.092 117.549C321.038 117.979 320.957 118.464 320.877 118.948C320.823 119.433 320.689 119.944 320.474 120.51Z"
    fill="#FF9A6C"
  />
<path
    d="M300.04 114.959C302.159 114.831 303.773 113.007 303.645 110.885C303.518 108.763 301.697 107.147 299.578 107.275C297.459 107.402 295.845 109.226 295.972 111.348C296.1 113.47 297.921 115.087 300.04 114.959Z"
    fill="#1B1A2E"
  />
<path
    d="M307.734 107.428C306.525 106.648 305.235 106.056 303.918 105.625C302.601 105.221 301.23 104.979 299.859 105.006C299.51 104.979 299.188 105.033 298.838 105.06L298.327 105.113C298.166 105.14 297.978 105.194 297.817 105.194L296.795 105.383C296.473 105.49 296.124 105.598 295.801 105.679L295.29 105.813L294.807 106.002L293.812 106.379C293.167 106.675 292.549 106.998 291.877 107.294C292.414 106.836 292.979 106.352 293.57 105.948L294.511 105.383L294.995 105.113L295.505 104.898C295.855 104.764 296.177 104.629 296.527 104.494C296.876 104.387 297.252 104.306 297.602 104.225C297.79 104.171 297.951 104.144 298.139 104.118L298.704 104.064C299.08 104.037 299.456 103.956 299.833 103.983C301.338 103.956 302.816 104.279 304.187 104.871C305.557 105.463 306.794 106.325 307.734 107.428Z"
    fill="#1B1A2E"
  />
<path
    d="M263.307 110.901C263.307 113.027 261.56 114.75 259.437 114.723C257.314 114.723 255.594 112.973 255.62 110.847C255.62 108.72 257.367 106.998 259.491 107.025C261.587 107.025 263.307 108.774 263.307 110.901Z"
    fill="#1B1A2E"
  />
<path
    d="M267.392 107.186C266.183 106.405 264.893 105.813 263.576 105.383C262.259 104.979 260.888 104.737 259.517 104.764C259.168 104.737 258.845 104.791 258.496 104.817L257.985 104.871C257.824 104.898 257.636 104.952 257.474 104.952L256.453 105.14C256.131 105.248 255.781 105.356 255.459 105.437L254.948 105.571L254.464 105.76L253.47 106.136C252.825 106.432 252.207 106.755 251.535 107.051C252.072 106.594 252.637 106.109 253.228 105.706L254.169 105.14L254.652 104.871L255.163 104.656C255.512 104.521 255.835 104.387 256.184 104.252C256.534 104.145 256.91 104.064 257.259 103.983C257.448 103.929 257.609 103.902 257.797 103.875L258.361 103.822C258.738 103.795 259.114 103.714 259.49 103.741C260.995 103.714 262.474 104.037 263.844 104.629C265.215 105.221 266.451 106.082 267.392 107.186Z"
    fill="#1B1A2E"
  />
<path
    d="M284.137 119.837C284.567 121.452 284.889 123.094 285.212 124.736C285.507 126.378 285.749 128.02 285.991 129.661C286.099 130.469 286.233 131.357 286.126 132.245C286.045 133.134 285.803 133.995 285.4 134.776C284.997 135.556 284.379 136.283 283.572 136.687C282.82 137.037 282.067 137.413 281.288 137.709C281.96 137.198 282.631 136.714 283.33 136.229C283.948 135.771 284.405 135.125 284.701 134.399C284.997 133.672 285.158 132.918 285.185 132.138C285.239 131.357 285.131 130.604 284.997 129.769C284.782 128.127 284.594 126.458 284.432 124.816C284.271 123.175 284.163 121.506 284.137 119.837Z"
    fill="#1B1A2E"
  />
<path
    d="M284.755 147.103C283.922 149.014 282.47 150.441 280.589 151.41C280.132 151.652 279.621 151.84 279.111 152.029C278.573 152.163 278.062 152.298 277.498 152.352C276.396 152.486 275.24 152.405 274.138 152.082C271.934 151.49 270.08 150.064 268.897 148.368C268.306 147.534 267.849 146.592 267.554 145.649C267.285 144.68 267.097 143.685 267.204 142.635C267.876 143.065 268.494 143.469 269.085 143.846C270.026 144.465 270.859 145.003 271.693 145.461C273.036 146.242 274.273 146.78 275.482 147.103C276.1 147.264 276.692 147.372 277.364 147.453C277.686 147.507 278.036 147.48 278.385 147.534C278.734 147.507 279.111 147.561 279.487 147.534C280.186 147.507 280.884 147.453 281.664 147.372C282.605 147.291 283.626 147.184 284.755 147.103Z"
    fill="#E43F5A"
  />
<path
    d="M281.664 147.399C281.126 148.018 280.481 148.53 279.756 148.933C278.277 149.795 276.235 150.091 274.407 149.579C272.553 149.068 271.021 147.857 270.134 146.43C269.677 145.703 269.354 144.95 269.139 144.142C269.112 144.061 269.112 143.954 269.085 143.873C270.026 144.492 270.859 145.03 271.693 145.488C273.036 146.269 274.273 146.807 275.482 147.13C276.1 147.291 276.692 147.399 277.364 147.48C277.686 147.534 278.035 147.507 278.385 147.561C278.734 147.534 279.111 147.588 279.487 147.561C280.159 147.534 280.884 147.453 281.664 147.399Z"
    fill="white"
  />
<path
    d="M307.815 96.6886C306.042 96.5809 304.698 96.4463 303.434 96.4194C302.171 96.3656 301.069 96.3117 299.967 96.3656C299.833 96.3656 299.699 96.3656 299.537 96.3656L299.107 96.3925C298.973 96.3925 298.812 96.3925 298.677 96.3925C298.543 96.3925 298.382 96.4194 298.247 96.4194C297.952 96.4463 297.656 96.4463 297.36 96.4463C297.065 96.4732 296.742 96.5001 296.42 96.5001C296.258 96.5001 296.097 96.5001 295.936 96.5001C295.775 96.5271 295.613 96.554 295.452 96.554C295.103 96.5809 294.753 96.5809 294.377 96.6078C293.651 96.6347 292.872 96.7155 291.958 96.6347C292.092 96.2041 292.281 95.8272 292.496 95.4504C292.711 95.0736 292.926 94.6967 293.194 94.4007C293.463 94.1046 293.759 93.7816 294.054 93.5124C294.216 93.3509 294.377 93.2433 294.511 93.0818C294.673 92.9741 294.861 92.8395 295.022 92.7318C295.371 92.5165 295.748 92.3012 296.124 92.0859C296.527 91.9244 296.93 91.7629 297.333 91.6552C297.548 91.6014 297.737 91.5206 297.952 91.4668L298.597 91.3591C299.027 91.3053 299.457 91.2245 299.887 91.2514C301.634 91.2245 303.381 91.7359 304.805 92.678C304.993 92.7857 305.155 92.9203 305.316 93.0548C305.477 93.1894 305.638 93.324 305.8 93.4586C306.122 93.7547 306.391 94.0507 306.66 94.4007C307.224 95.0467 307.654 95.8003 307.815 96.6886Z"
    fill="#1B1A2E"
  />
<path
    d="M267.474 96.4464C265.7 96.3388 264.356 96.2042 263.093 96.1773C261.83 96.1234 260.728 96.0696 259.626 96.1234C259.492 96.1234 259.357 96.1234 259.196 96.1234L258.766 96.1503C258.632 96.1503 258.47 96.1503 258.336 96.1503C258.202 96.1503 258.04 96.1773 257.906 96.1773C257.61 96.2042 257.315 96.2042 257.019 96.2042C256.723 96.2311 256.401 96.258 256.078 96.258C255.917 96.258 255.756 96.258 255.595 96.258C255.433 96.2849 255.272 96.3118 255.111 96.3118C254.761 96.3388 254.412 96.3387 254.036 96.3657C253.31 96.3926 252.531 96.4733 251.617 96.3926C251.751 95.9619 251.939 95.5851 252.154 95.2082C252.369 94.8314 252.584 94.4546 252.853 94.1585C253.122 93.8624 253.417 93.5394 253.713 93.2702C253.874 93.1087 254.036 93.0011 254.17 92.8396C254.331 92.7319 254.519 92.5973 254.681 92.4897C255.03 92.2743 255.406 92.059 255.783 91.8437C256.186 91.6822 256.589 91.5207 256.992 91.413C257.207 91.3592 257.395 91.2784 257.61 91.2246L258.255 91.1169C258.685 91.0631 259.115 90.9823 259.545 91.0093C261.292 90.9823 263.039 91.4937 264.464 92.4358C264.652 92.5435 264.813 92.6781 264.975 92.8127C265.136 92.9473 265.297 93.0818 265.458 93.2164C265.781 93.5125 266.05 93.8086 266.318 94.1585C266.856 94.8045 267.313 95.5582 267.474 96.4464Z"
    fill="#1B1A2E"
  />
<path
    d="M329.686 149.362C328.059 151.602 324.92 152.094 322.686 150.457L319.55 148.16C317.327 146.532 316.84 143.412 318.462 141.184L320.752 138.038C322.379 135.804 325.51 135.313 327.743 136.943L330.879 139.232C333.105 140.857 333.596 143.978 331.976 146.208L329.686 149.362ZM319.302 141.044C317.677 143.274 318.166 146.398 320.393 148.026L322.559 149.609C324.791 151.239 327.922 150.75 329.55 148.516L331.133 146.343C332.758 144.113 332.269 140.989 330.042 139.362L327.876 137.779C325.644 136.148 322.513 136.637 320.885 138.871L319.302 141.044Z"
    fill="#E3405A"
  />
<path
    d="M324.64 135.663C324.721 136.175 324.371 136.632 323.887 136.713C323.377 136.794 322.92 136.444 322.839 135.96C322.759 135.475 323.108 134.991 323.592 134.91C324.102 134.829 324.586 135.152 324.64 135.663Z"
    fill="#E3405A"
  />
<path
    d="M224.908 150.967C226.535 153.202 229.667 153.693 231.899 152.063L235.03 149.777C237.258 148.15 237.748 145.026 236.124 142.796L233.839 139.656C232.212 137.422 229.081 136.931 226.848 138.561L223.717 140.847C221.489 142.474 221 145.597 222.623 147.828L224.908 150.967ZM235.29 142.636C236.914 144.865 236.426 147.989 234.198 149.617L232.032 151.2C229.8 152.831 226.669 152.341 225.041 150.107L223.458 147.934C221.833 145.705 222.322 142.58 224.549 140.953L226.715 139.37C228.947 137.739 232.079 138.229 233.706 140.463L235.29 142.636Z"
    fill="#E3405A"
  />
<path
    d="M229.952 135.662C229.871 136.174 230.22 136.631 230.704 136.712C231.188 136.793 231.672 136.443 231.752 135.959C231.833 135.474 231.484 134.99 231 134.909C230.516 134.828 230.032 135.151 229.952 135.662Z"
    fill="#E3405A"
  />
<path
    d="M293.113 29.3705C273.251 24.4987 235.354 30.9317 218.018 61.9126C189.663 112.569 218.502 145.757 227.56 141.585L226.646 139.244C226.834 139.701 228.473 142.85 236.133 140.186L232.29 135.691C233.795 137.252 235.891 138.948 237.477 138.436C237.477 138.436 225.436 125.597 226.243 99.811C226.243 99.811 226.162 114.75 232.72 123.82L234.709 122.502L234.01 120.079L235.623 122.394L237.907 121.102C237.907 121.102 232.854 89.9057 254.732 58.3058C254.732 58.3058 237.854 73.6933 250.835 88.7665C250.835 88.7665 246.32 86.7296 258.979 55.3988C258.979 55.3988 254.625 72.7243 262.742 86.4786L268.386 85.2673C268.386 85.2673 259.436 90.9285 269.112 52.8148C269.112 52.8148 266.666 59.8582 273.546 84.9982C273.546 84.9982 279.432 83.3024 287.442 84.1907C287.442 84.1907 286.824 86.1105 285.856 71.6832L288.786 83.8946L291.124 83.9484C291.124 83.9484 290.318 73.4597 285.48 53.2455C285.48 53.2455 299.16 56.8435 298.085 86.4786C298.085 86.4786 305.369 106.702 301.041 85.9759C297.789 70.4451 295.639 64.2543 294.752 62.1279C297.064 67.2151 307.465 67.5025 305.96 85.6711C305.96 85.6711 311.604 87.8244 315.018 84.406C318.189 81.2299 316.039 87.0795 315.689 84.3609C315.743 84.8185 315.905 85.6529 316.2 86.6757C316.953 90.7939 318.135 99.3265 317.356 110.093C317.356 110.093 320.447 112.892 322.866 109.178C322.543 116.58 321.549 123.201 318.35 129.338C318.35 129.338 323.108 133.134 327.892 109.635C327.892 109.635 326.709 123.686 322.678 130.442C322.678 130.442 331.224 133.08 336.439 119.325L335.095 125.005C335.095 125.005 339.96 124.601 341.411 107.644C342.808 90.6594 343.776 41.806 293.113 29.3705Z"
    fill="url(#paint14_linear_198_3532)"
  />
<path
    d="M335.014 124.978C335.767 124.682 336.304 124.063 336.734 123.444C336.976 123.148 337.137 122.798 337.352 122.448C337.514 122.098 337.702 121.748 337.863 121.399C338.508 119.972 338.938 118.465 339.341 116.93C339.53 116.177 339.745 115.396 339.879 114.616C340.067 113.835 340.228 113.081 340.363 112.274C340.685 110.713 340.954 109.152 341.33 107.563C341.384 109.178 341.33 110.793 341.169 112.382C341.008 113.997 340.712 115.585 340.336 117.146C339.906 118.707 339.395 120.268 338.589 121.695C338.401 122.045 338.159 122.394 337.944 122.744L337.568 123.229C337.433 123.39 337.299 123.552 337.164 123.686C336.869 123.983 336.546 124.252 336.197 124.467C335.82 124.763 335.417 124.952 335.014 124.978Z"
    fill="#1F4068"
  />
<path
    d="M336.385 119.271C336.493 119.783 336.466 120.294 336.439 120.779C336.412 121.263 336.331 121.748 336.197 122.232C336.089 122.717 335.928 123.174 335.74 123.632C335.552 124.09 335.337 124.547 335.014 124.951C334.907 124.439 334.934 123.928 334.961 123.444C334.987 122.959 335.068 122.475 335.202 121.99C335.31 121.506 335.471 121.048 335.659 120.59C335.848 120.16 336.063 119.702 336.385 119.271Z"
    fill="#1F4068"
  />
<path
    d="M322.624 130.388C324.586 130.684 326.575 130.253 328.295 129.365C330.015 128.477 331.413 127.104 332.568 125.543C333.697 123.982 334.584 122.232 335.283 120.429C335.982 118.625 336.546 116.741 336.949 114.83C337.809 111.008 338.266 107.105 338.535 103.175C338.804 99.2455 338.885 95.2888 338.938 91.332C339.288 95.2888 339.476 99.2455 339.341 103.202C339.234 107.159 338.831 111.143 337.944 115.045C337.514 116.983 336.923 118.921 336.17 120.779C335.391 122.636 334.45 124.439 333.187 126.027C332.864 126.431 332.542 126.808 332.192 127.158C331.843 127.535 331.467 127.858 331.09 128.181C330.284 128.8 329.451 129.392 328.51 129.796C326.629 130.603 324.532 130.899 322.624 130.388Z"
    fill="#1F4068"
  />
<path
    d="M327.838 109.582C327.892 111.385 327.758 113.189 327.569 114.992C327.381 116.796 327.086 118.572 326.682 120.349C326.279 122.125 325.822 123.875 325.15 125.57C324.505 127.266 323.726 128.935 322.624 130.388C323.35 128.72 323.887 127.024 324.371 125.328C324.855 123.606 325.285 121.883 325.661 120.133C326.064 118.384 326.414 116.634 326.763 114.885C327.112 113.108 327.462 111.359 327.838 109.582Z"
    fill="#1F4068"
  />
<path
    d="M318.297 129.285C318.619 129.446 318.969 129.446 319.318 129.365C319.641 129.285 319.963 129.15 320.232 128.935C320.796 128.558 321.226 127.993 321.63 127.427C322.409 126.297 322.973 125.005 323.511 123.74C324.532 121.156 325.285 118.437 325.984 115.719C326.333 114.373 326.656 113 326.951 111.627C327.247 110.255 327.569 108.882 327.811 107.509C328.026 106.137 328.188 104.737 328.295 103.337C328.43 101.938 328.51 100.538 328.671 99.1113C328.806 101.938 328.913 104.764 328.618 107.617C328.268 110.47 327.677 113.216 327.005 115.961C326.656 117.334 326.279 118.707 325.822 120.052C325.366 121.398 324.882 122.744 324.264 124.036C323.672 125.328 322.973 126.593 322.06 127.724C321.576 128.262 321.065 128.8 320.42 129.15C320.098 129.339 319.748 129.473 319.372 129.5C318.969 129.554 318.593 129.473 318.297 129.285Z"
    fill="#1F4068"
  />
<path
    d="M322.49 93.2441C322.731 95.209 322.92 97.147 323.108 99.1119C323.296 101.077 323.403 103.042 323.457 105.007C323.484 106.972 323.43 108.963 323.215 110.928C323 112.893 322.678 114.858 322.167 116.769C322.248 114.804 322.355 112.839 322.409 110.874C322.463 108.91 322.463 106.972 322.436 105.007L322.328 99.1389C322.275 97.2009 322.301 95.209 322.49 93.2441Z"
    fill="#1F4068"
  />
<path
    d="M226.189 99.8105C226.431 101.91 226.7 103.983 227.049 106.055C227.398 108.128 227.775 110.173 228.258 112.192C228.742 114.211 229.36 116.203 230.032 118.168C230.758 120.106 231.645 121.99 232.666 123.847C231.295 122.232 230.194 120.402 229.28 118.464C228.42 116.526 227.748 114.48 227.237 112.434C226.753 110.362 226.404 108.262 226.216 106.163C226.081 104.036 226.001 101.91 226.189 99.8105Z"
    fill="#1F4068"
  />
<path
    d="M237.424 138.437C235.032 135.96 233.177 133.027 231.618 129.931C230.06 126.863 228.877 123.579 227.936 120.268C227.56 118.572 227.103 116.931 226.834 115.208C226.7 114.347 226.539 113.512 226.431 112.651L226.162 110.067C226.135 109.636 226.082 109.205 226.055 108.775L226.001 107.483L225.947 104.899C225.92 104.038 226.001 103.176 226.028 102.315C226.055 101.454 226.109 100.592 226.162 99.7578C226.297 101.48 226.297 103.176 226.431 104.872L226.673 107.429L226.781 108.694C226.834 109.125 226.888 109.528 226.969 109.959L227.318 112.489C227.452 113.324 227.641 114.158 227.775 114.993C228.044 116.661 228.501 118.303 228.904 119.972C229.818 123.256 230.92 126.459 232.317 129.554L232.855 130.712C233.043 131.089 233.231 131.465 233.419 131.842C233.607 132.219 233.795 132.596 234.01 132.973L234.629 134.076C235.462 135.637 236.402 137.091 237.424 138.437Z"
    fill="#1F4068"
  />
<path
    d="M224.71 122.798C225.436 124.44 226.135 126.055 226.941 127.616C227.748 129.177 228.608 130.711 229.602 132.138C230.57 133.591 231.672 134.937 232.935 136.122C233.58 136.714 234.252 137.252 234.977 137.683C235.73 138.113 236.536 138.409 237.45 138.436C236.563 138.652 235.623 138.49 234.762 138.14C233.902 137.79 233.123 137.306 232.397 136.741C230.946 135.61 229.763 134.21 228.742 132.703C227.721 131.196 226.887 129.608 226.216 127.939C225.544 126.297 225.006 124.574 224.71 122.798Z"
    fill="#1F4068"
  />
<path
    d="M236.107 140.186C235.623 139.944 235.22 139.648 234.843 139.325C234.467 139.002 234.118 138.652 233.795 138.275C233.473 137.898 233.177 137.494 232.908 137.091C232.639 136.66 232.398 136.229 232.263 135.718C232.747 135.96 233.15 136.256 233.526 136.579C233.903 136.902 234.252 137.252 234.575 137.629C234.897 138.006 235.193 138.409 235.462 138.813C235.703 139.244 235.945 139.675 236.107 140.186Z"
    fill="#1F4068"
  />
<path
    d="M210.601 126.97C211.649 128.692 212.67 130.388 213.826 132.003C214.955 133.618 216.191 135.179 217.535 136.606C218.207 137.333 218.906 138.005 219.658 138.625C220.384 139.271 221.19 139.836 221.996 140.347C222.83 140.832 223.69 141.289 224.63 141.558C225.544 141.828 226.566 141.908 227.506 141.585C226.646 142.097 225.544 142.204 224.523 142.043C223.502 141.881 222.507 141.505 221.593 141.047C219.766 140.105 218.18 138.759 216.755 137.306C215.358 135.825 214.148 134.183 213.1 132.434C212.106 130.711 211.246 128.881 210.601 126.97Z"
    fill="#1F4068"
  />
<path
    d="M316.496 93.2165C316.335 91.7899 316.173 90.3633 315.932 88.9367C315.717 87.5102 315.448 86.1105 315.206 84.6839C314.668 81.8577 314.104 79.0584 313.459 76.2591L312.975 74.1596L312.464 72.0601C312.142 70.6604 311.766 69.2877 311.443 67.8881L310.368 63.716C310.019 62.3163 309.615 60.9436 309.293 59.5439C309.831 60.8898 310.341 62.2356 310.852 63.5814C311.309 64.9542 311.792 66.3 312.223 67.6727C313.083 70.4182 313.835 73.2175 314.48 76.0168C315.098 78.8431 315.636 81.6693 316.012 84.5224C316.362 87.4294 316.603 90.3364 316.496 93.2165Z"
    fill="#1F4068"
  />
<path
    d="M215.976 116.553C216.191 118.06 216.433 119.54 216.809 120.994C217.159 122.447 217.562 123.901 218.019 125.301C218.959 128.127 220.169 130.872 221.755 133.376C222.534 134.641 223.421 135.825 224.389 136.955C224.631 137.252 224.872 137.521 225.141 137.79C225.383 138.059 225.652 138.328 225.921 138.57C226.431 139.109 226.969 139.539 227.614 139.889C228.85 140.616 230.302 140.993 231.753 141.02C233.231 141.047 234.709 140.697 236.107 140.185C234.79 140.912 233.312 141.397 231.753 141.531C230.221 141.639 228.608 141.343 227.211 140.616C226.861 140.428 226.512 140.239 226.189 139.997C225.867 139.755 225.571 139.486 225.302 139.243C225.007 138.974 224.738 138.732 224.469 138.436C224.2 138.167 223.932 137.898 223.663 137.601C222.642 136.471 221.728 135.233 220.895 133.914C219.282 131.303 218.073 128.45 217.266 125.516C216.46 122.609 216.003 119.594 215.976 116.553Z"
    fill="#1F4068"
  />
<path
    d="M234.682 122.528C233.983 120.536 233.5 118.464 233.043 116.418C232.854 115.368 232.639 114.345 232.478 113.296L232.263 111.735C232.183 111.223 232.129 110.685 232.075 110.147C231.994 109.097 231.833 108.047 231.806 106.97C231.753 105.921 231.699 104.844 231.672 103.794V100.618C231.672 99.5683 231.779 98.4917 231.806 97.4419C231.833 96.9036 231.86 96.3922 231.914 95.8539L232.102 94.2658L232.29 92.6777C232.344 92.1394 232.398 91.628 232.505 91.0896C232.881 88.9902 233.204 86.8907 233.768 84.845L234.145 83.3108L234.333 82.5302C234.413 82.261 234.494 82.0188 234.575 81.7765L235.542 78.7619C235.838 77.7391 236.268 76.7701 236.671 75.8011C237.074 74.8321 237.477 73.8362 237.88 72.8672C236.563 76.8777 235.327 80.8883 234.521 85.0334C233.634 89.1247 233.123 93.2968 232.854 97.4958C232.559 101.668 232.613 105.894 232.908 110.066C233.177 114.238 233.688 118.41 234.682 122.528Z"
    fill="#1F4068"
  />
<path
    d="M240.891 183.144C240.138 181.879 239.682 180.453 239.305 179.053C239.117 178.353 238.983 177.627 238.848 176.9C238.741 176.173 238.633 175.446 238.58 174.72C238.445 173.266 238.391 171.786 238.418 170.332C238.445 169.605 238.472 168.879 238.526 168.152C238.606 167.425 238.687 166.698 238.795 165.972C238.902 166.698 238.956 167.425 239.01 168.152C239.09 168.879 239.144 169.605 239.198 170.305C239.332 171.732 239.413 173.185 239.574 174.612C239.708 176.038 239.87 177.465 240.058 178.892C240.3 180.318 240.515 181.745 240.891 183.144Z"
    fill="#1F4068"
  />
<path
    d="M319.613 174.773C320.258 173.966 320.608 172.97 320.903 172.001C321.065 171.516 321.172 171.005 321.307 170.52L321.629 169.013C322.005 166.994 322.22 164.976 322.408 162.93C322.57 160.884 322.704 158.839 322.812 156.766C322.839 155.743 322.919 154.72 322.973 153.671C323.027 152.648 323.054 151.598 323.161 150.575C323.295 151.598 323.403 152.648 323.484 153.671C323.564 154.693 323.591 155.743 323.645 156.793C323.699 157.843 323.645 158.865 323.645 159.915C323.645 160.965 323.537 161.988 323.484 163.038C323.269 165.11 323 167.183 322.462 169.201C322.301 169.713 322.167 170.197 322.005 170.709C321.817 171.193 321.656 171.705 321.414 172.162C321.199 172.647 320.957 173.104 320.661 173.562C320.366 174.019 320.043 174.45 319.613 174.773Z"
    fill="#1F4068"
  />
<path
    d="M332.595 170.413C333.106 168.637 333.455 166.86 333.697 165.03C333.832 164.115 333.939 163.227 334.047 162.312C334.127 161.396 334.235 160.508 334.288 159.593C334.557 155.959 334.611 152.299 334.53 148.638C334.503 144.977 334.208 141.344 333.966 137.683L333.455 132.219C333.267 130.389 333.052 128.585 332.891 126.755C333.294 128.558 333.617 130.362 333.966 132.165C334.235 133.968 334.53 135.799 334.772 137.629C335.202 141.29 335.525 144.95 335.579 148.638C335.632 150.468 335.579 152.326 335.552 154.156L335.39 156.928C335.337 157.843 335.229 158.759 335.122 159.674C335.014 160.589 334.88 161.504 334.745 162.419C334.584 163.334 334.423 164.25 334.235 165.138L333.912 166.484L333.563 167.829C333.24 168.691 332.971 169.579 332.595 170.413Z"
    fill="#1F4068"
  />
<path
    d="M218.422 171.382C217.615 169.363 217.266 167.183 217.078 165.003C216.917 162.823 216.997 160.643 217.212 158.462C217.508 156.309 217.911 154.156 218.556 152.056L218.771 151.276L219.04 150.495L219.604 148.961C220.007 147.965 220.464 146.969 220.948 146C220.679 147.05 220.33 148.073 220.061 149.122L219.658 150.683L219.443 151.464L219.282 152.245C219.174 152.756 219.067 153.294 218.932 153.806C218.825 154.317 218.744 154.856 218.637 155.394C218.422 156.444 218.314 157.493 218.153 158.57C217.911 160.696 217.804 162.823 217.804 164.976C217.857 167.103 218.019 169.256 218.422 171.382Z"
    fill="#1F4068"
  />
<g opacity="0.8">
<g opacity="0.8">
<path
        opacity="0.8"
        d="M193.265 211.138C194.259 211.945 195.119 212.807 195.979 213.722C196.812 214.637 197.619 215.579 198.398 216.548C199.178 217.517 199.903 218.513 200.575 219.536C201.274 220.558 201.919 221.635 202.457 222.766C201.462 221.958 200.602 221.097 199.742 220.182C198.909 219.266 198.103 218.324 197.323 217.355C196.544 216.386 195.818 215.39 195.146 214.368C194.474 213.345 193.802 212.268 193.265 211.138Z"
        fill="#5B54CA"
      />
</g>
</g>
<g opacity="0.8">
<g opacity="0.8">
<path
        opacity="0.8"
        d="M200.521 244.461C201.785 244.326 203.021 244.326 204.257 244.353C205.494 244.407 206.73 244.488 207.966 244.649C209.203 244.784 210.412 244.972 211.622 245.214C212.831 245.456 214.041 245.753 215.25 246.156C213.987 246.291 212.751 246.291 211.514 246.264C210.278 246.21 209.041 246.129 207.805 245.968C206.569 245.833 205.359 245.645 204.15 245.403C202.94 245.187 201.731 244.891 200.521 244.461Z"
        fill="#5B54CA"
      />
</g>
</g>
<g opacity="0.8">
<g opacity="0.8">
<path
        opacity="0.8"
        d="M226.646 218.163C226.512 216.898 226.512 215.66 226.538 214.422C226.592 213.184 226.673 211.946 226.834 210.707C226.968 209.469 227.157 208.258 227.399 207.047C227.64 205.836 227.936 204.624 228.339 203.413C228.474 204.678 228.474 205.916 228.447 207.154C228.393 208.393 228.312 209.631 228.151 210.869C228.017 212.107 227.829 213.318 227.587 214.53C227.345 215.741 227.049 216.979 226.646 218.163Z"
        fill="#5B54CA"
      />
</g>
</g>
<g opacity="0.8">
<g opacity="0.8">
<path
        opacity="0.8"
        d="M149.348 240.316C150.584 240.612 151.74 241.043 152.895 241.528C154.051 241.985 155.18 242.524 156.282 243.062C157.384 243.627 158.459 244.219 159.534 244.865C160.582 245.511 161.631 246.211 162.598 247.019C161.362 246.723 160.206 246.292 159.05 245.834C157.895 245.377 156.766 244.838 155.664 244.3C154.562 243.735 153.487 243.143 152.412 242.497C151.363 241.824 150.315 241.124 149.348 240.316Z"
        fill="#5B54CA"
      />
</g>
</g>
<g opacity="0.8">
<g opacity="0.8">
<path
        opacity="0.8"
        d="M164.076 276.734C165.097 276.007 166.199 275.388 167.301 274.823C168.403 274.257 169.532 273.746 170.661 273.261C171.79 272.777 172.972 272.346 174.128 271.969C175.311 271.593 176.493 271.243 177.757 271.027C176.735 271.754 175.633 272.373 174.531 272.938C173.429 273.504 172.301 274.015 171.172 274.5C170.043 274.984 168.86 275.415 167.705 275.792C166.522 276.195 165.313 276.518 164.076 276.734Z"
        fill="#5B54CA"
      />
</g>
</g>
<g opacity="0.8">
<g opacity="0.8">
<path
        opacity="0.8"
        d="M163.565 305.857C164.802 306.127 165.984 306.503 167.167 306.934C168.323 307.365 169.478 307.822 170.607 308.361C171.736 308.872 172.838 309.437 173.913 310.029C174.988 310.649 176.063 311.295 177.058 312.048C175.821 311.779 174.639 311.402 173.456 310.972C172.3 310.541 171.145 310.083 170.016 309.545C168.887 309.034 167.785 308.468 166.71 307.876C165.635 307.284 164.587 306.638 163.565 305.857Z"
        fill="#5B54CA"
      />
</g>
</g>
<g opacity="0.8">
<g opacity="0.8">
<path
        opacity="0.8"
        d="M182.729 248.579C182.595 247.314 182.595 246.076 182.621 244.838C182.675 243.6 182.756 242.362 182.917 241.123C183.051 239.885 183.24 238.674 183.482 237.463C183.723 236.252 184.019 235.04 184.422 233.829C184.557 235.094 184.557 236.332 184.53 237.57C184.476 238.809 184.395 240.047 184.234 241.285C184.1 242.523 183.912 243.734 183.67 244.946C183.428 246.184 183.159 247.395 182.729 248.579Z"
        fill="#5B54CA"
      />
</g>
</g>
<g opacity="0.8">
<g opacity="0.8">
<path
        opacity="0.8"
        d="M203.827 263.922C204.822 264.729 205.682 265.591 206.542 266.506C207.375 267.421 208.181 268.363 208.961 269.332C209.74 270.301 210.466 271.297 211.138 272.32C211.837 273.343 212.482 274.419 213.019 275.55C212.025 274.742 211.165 273.881 210.305 272.966C209.471 272.051 208.665 271.109 207.886 270.14C207.106 269.171 206.38 268.175 205.709 267.152C205.01 266.129 204.365 265.052 203.827 263.922Z"
        fill="#5B54CA"
      />
</g>
</g>
<g opacity="0.8">
<g opacity="0.8">
<path
        opacity="0.8"
        d="M190.899 323.192C192.163 323.057 193.399 323.057 194.635 323.084C195.872 323.138 197.108 323.219 198.344 323.38C199.581 323.515 200.79 323.703 202 323.946C203.209 324.188 204.419 324.484 205.628 324.888C204.365 325.022 203.128 325.022 201.892 324.995C200.656 324.942 199.419 324.861 198.183 324.699C196.947 324.565 195.737 324.376 194.528 324.134C193.318 323.892 192.082 323.623 190.899 323.192Z"
        fill="#5B54CA"
      />
</g>
</g>
<g opacity="0.8">
<g opacity="0.8">
<path
        opacity="0.8"
        d="M140.72 341.145C141.527 340.149 142.387 339.288 143.3 338.426C144.214 337.592 145.155 336.784 146.123 336.004C147.09 335.223 148.085 334.497 149.106 333.824C150.127 333.124 151.202 332.478 152.331 331.939C151.525 332.935 150.665 333.797 149.751 334.658C148.837 335.492 147.896 336.3 146.929 337.08C145.961 337.861 144.967 338.588 143.945 339.261C142.924 339.961 141.876 340.607 140.72 341.145Z"
        fill="#5B54CA"
      />
</g>
</g>
<g opacity="0.8">
<g opacity="0.8">
<path
        opacity="0.8"
        d="M118.036 316.624C119.299 316.489 120.535 316.489 121.772 316.516C123.008 316.57 124.244 316.651 125.481 316.812C126.717 316.947 127.926 317.135 129.136 317.377C130.345 317.62 131.555 317.916 132.764 318.319C131.501 318.454 130.265 318.454 129.028 318.427C127.792 318.373 126.556 318.292 125.319 318.131C124.083 317.996 122.874 317.808 121.664 317.566C120.428 317.324 119.218 317.054 118.036 316.624Z"
        fill="#5B54CA"
      />
</g>
</g>
<g opacity="0.8">
<g opacity="0.8">
<path
        opacity="0.8"
        d="M230.785 331.616C231.779 332.424 232.639 333.285 233.499 334.2C234.332 335.115 235.139 336.057 235.918 337.026C236.698 337.995 237.423 338.991 238.095 340.014C238.794 341.037 239.439 342.114 239.977 343.244C238.982 342.437 238.122 341.575 237.262 340.66C236.429 339.745 235.623 338.803 234.843 337.834C234.064 336.865 233.338 335.869 232.666 334.846C231.967 333.823 231.322 332.774 230.785 331.616Z"
        fill="#5B54CA"
      />
</g>
</g>
<g opacity="0.8">
<g opacity="0.8">
<path
        opacity="0.8"
        d="M205.467 305.669C206.192 304.619 206.999 303.677 207.832 302.762C208.665 301.847 209.552 300.985 210.466 300.124C211.38 299.29 212.32 298.482 213.288 297.702C214.256 296.948 215.277 296.194 216.379 295.575C215.653 296.625 214.847 297.567 214.014 298.482C213.181 299.397 212.294 300.259 211.38 301.093C210.466 301.927 209.525 302.735 208.558 303.516C207.563 304.296 206.542 305.023 205.467 305.669Z"
        fill="#5B54CA"
      />
</g>
</g>
<g opacity="0.8">
<g opacity="0.8">
<path
        opacity="0.8"
        d="M235.811 260.933C235.677 259.668 235.677 258.43 235.703 257.191C235.757 255.953 235.838 254.715 235.999 253.477C236.134 252.239 236.322 251.028 236.564 249.816C236.805 248.605 237.101 247.394 237.504 246.183C237.639 247.448 237.639 248.686 237.612 249.924C237.558 251.162 237.477 252.4 237.316 253.639C237.182 254.877 236.994 256.088 236.752 257.299C236.51 258.51 236.241 259.722 235.811 260.933Z"
        fill="#5B54CA"
      />
</g>
</g>
<g opacity="0.8">
<g opacity="0.8">
<path
        opacity="0.8"
        d="M353.505 211.138C352.968 212.268 352.296 213.345 351.624 214.368C350.925 215.39 350.2 216.386 349.447 217.355C348.668 218.324 347.888 219.266 347.028 220.182C346.168 221.097 345.308 221.958 344.313 222.766C344.851 221.608 345.523 220.558 346.195 219.536C346.894 218.513 347.619 217.517 348.372 216.548C349.151 215.579 349.931 214.637 350.791 213.722C351.651 212.807 352.538 211.918 353.505 211.138Z"
        fill="#5B54CA"
      />
</g>
</g>
<g opacity="0.8">
<g opacity="0.8">
<path
        opacity="0.8"
        d="M346.249 244.461C345.066 244.891 343.83 245.16 342.62 245.403C341.411 245.645 340.174 245.833 338.965 245.968C337.729 246.102 336.492 246.21 335.256 246.264C334.02 246.291 332.783 246.291 331.52 246.156C332.703 245.726 333.939 245.456 335.148 245.214C336.358 244.972 337.594 244.784 338.804 244.649C340.04 244.514 341.276 244.407 342.513 244.353C343.749 244.326 344.985 244.326 346.249 244.461Z"
        fill="#5B54CA"
      />
</g>
</g>
<g opacity="0.8">
<g opacity="0.8">
<path
        opacity="0.8"
        d="M320.124 218.163C319.694 216.979 319.425 215.741 319.183 214.53C318.941 213.318 318.753 212.08 318.619 210.869C318.484 209.631 318.377 208.393 318.323 207.154C318.296 205.916 318.296 204.678 318.431 203.413C318.861 204.597 319.129 205.836 319.371 207.047C319.613 208.258 319.801 209.496 319.936 210.707C320.07 211.946 320.178 213.184 320.231 214.422C320.258 215.66 320.258 216.898 320.124 218.163Z"
        fill="#5B54CA"
      />
</g>
</g>
<g opacity="0.8">
<g opacity="0.8">
<path
        opacity="0.8"
        d="M397.45 240.316C396.482 241.124 395.434 241.797 394.386 242.47C393.337 243.116 392.235 243.708 391.134 244.273C390.032 244.838 388.903 245.35 387.747 245.807C386.591 246.265 385.436 246.696 384.199 246.992C385.167 246.184 386.215 245.511 387.263 244.838C388.311 244.192 389.413 243.6 390.515 243.035C391.617 242.47 392.746 241.958 393.902 241.501C395.031 241.07 396.213 240.639 397.45 240.316Z"
        fill="#5B54CA"
      />
</g>
</g>
<g opacity="0.8">
<g opacity="0.8">
<path
        opacity="0.8"
        d="M382.694 276.734C381.458 276.518 380.248 276.168 379.066 275.792C377.883 275.415 376.727 274.984 375.599 274.5C374.47 274.015 373.341 273.504 372.239 272.938C371.137 272.373 370.062 271.754 369.014 271.027C370.25 271.243 371.459 271.593 372.642 271.969C373.825 272.346 374.98 272.777 376.109 273.261C377.238 273.746 378.367 274.257 379.469 274.823C380.571 275.415 381.673 276.007 382.694 276.734Z"
        fill="#5B54CA"
      />
</g>
</g>
<g opacity="0.8">
<g opacity="0.8">
<path
        opacity="0.8"
        d="M383.205 305.857C382.183 306.638 381.135 307.284 380.06 307.876C378.985 308.468 377.883 309.034 376.754 309.545C375.625 310.056 374.497 310.541 373.314 310.972C372.158 311.402 370.976 311.779 369.712 312.048C370.707 311.268 371.782 310.622 372.857 310.029C373.932 309.437 375.034 308.872 376.163 308.361C377.292 307.849 378.421 307.365 379.603 306.934C380.786 306.503 381.968 306.127 383.205 305.857Z"
        fill="#5B54CA"
      />
</g>
</g>
<g opacity="0.8">
<g opacity="0.8">
<path
        opacity="0.8"
        d="M364.041 248.579C363.611 247.395 363.343 246.157 363.101 244.946C362.859 243.734 362.671 242.496 362.536 241.285C362.402 240.047 362.294 238.809 362.241 237.57C362.214 236.332 362.214 235.094 362.348 233.829C362.778 235.013 363.047 236.252 363.289 237.463C363.531 238.674 363.719 239.912 363.853 241.123C363.988 242.362 364.095 243.6 364.149 244.838C364.176 246.076 364.176 247.341 364.041 248.579Z"
        fill="#5B54CA"
      />
</g>
</g>
<g opacity="0.8">
<g opacity="0.8">
<path
        opacity="0.8"
        d="M342.942 263.922C342.405 265.052 341.733 266.129 341.061 267.152C340.362 268.175 339.637 269.171 338.884 270.14C338.105 271.109 337.325 272.051 336.465 272.966C335.605 273.881 334.745 274.742 333.75 275.55C334.288 274.392 334.96 273.343 335.632 272.32C336.331 271.297 337.056 270.301 337.809 269.332C338.588 268.363 339.368 267.421 340.228 266.506C341.088 265.591 341.975 264.702 342.942 263.922Z"
        fill="#5B54CA"
      />
</g>
</g>
<g opacity="0.8">
<g opacity="0.8">
<path
        opacity="0.8"
        d="M355.871 323.192C354.688 323.623 353.452 323.892 352.242 324.134C351.033 324.376 349.797 324.565 348.587 324.699C347.351 324.834 346.114 324.942 344.878 324.995C343.642 325.022 342.405 325.022 341.142 324.888C342.325 324.457 343.561 324.188 344.77 323.946C345.98 323.703 347.216 323.515 348.426 323.38C349.662 323.246 350.898 323.138 352.135 323.084C353.371 323.057 354.607 323.057 355.871 323.192Z"
        fill="#5B54CA"
      />
</g>
</g>
<g opacity="0.8">
<g opacity="0.8">
<path
        opacity="0.8"
        d="M406.05 341.145C404.921 340.607 403.846 339.934 402.825 339.261C401.804 338.561 400.809 337.834 399.842 337.08C398.874 336.3 397.933 335.519 397.02 334.658C396.106 333.797 395.246 332.935 394.439 331.939C395.595 332.478 396.643 333.151 397.665 333.824C398.686 334.523 399.68 335.25 400.648 336.004C401.616 336.784 402.556 337.565 403.47 338.426C404.357 339.288 405.244 340.176 406.05 341.145Z"
        fill="#5B54CA"
      />
</g>
</g>
<g opacity="0.8">
<g opacity="0.8">
<path
        opacity="0.8"
        d="M428.734 316.624C427.552 317.054 426.316 317.324 425.106 317.566C423.897 317.808 422.66 317.996 421.451 318.131C420.214 318.266 418.978 318.373 417.742 318.427C416.505 318.454 415.269 318.454 414.006 318.319C415.188 317.889 416.425 317.62 417.634 317.377C418.844 317.135 420.08 316.947 421.29 316.812C422.526 316.678 423.762 316.57 424.999 316.516C426.235 316.489 427.498 316.489 428.734 316.624Z"
        fill="#5B54CA"
      />
</g>
</g>
<g opacity="0.8">
<g opacity="0.8">
<path
        opacity="0.8"
        d="M315.985 331.616C315.448 332.747 314.776 333.823 314.104 334.846C313.405 335.869 312.68 336.865 311.927 337.834C311.148 338.803 310.368 339.745 309.508 340.66C308.648 341.575 307.788 342.437 306.793 343.244C307.331 342.087 308.003 341.037 308.675 340.014C309.374 338.991 310.099 337.995 310.852 337.026C311.631 336.057 312.411 335.115 313.271 334.2C314.131 333.312 315.018 332.424 315.985 331.616Z"
        fill="#5B54CA"
      />
</g>
</g>
<g opacity="0.8">
<g opacity="0.8">
<path
        opacity="0.8"
        d="M341.303 305.669C340.201 305.023 339.207 304.297 338.212 303.543C337.245 302.789 336.304 301.982 335.39 301.12C334.476 300.286 333.616 299.398 332.756 298.51C331.923 297.594 331.117 296.652 330.391 295.603C331.493 296.249 332.488 296.975 333.482 297.729C334.45 298.483 335.39 299.29 336.304 300.151C337.218 300.986 338.078 301.874 338.938 302.789C339.798 303.677 340.604 304.62 341.303 305.669Z"
        fill="#5B54CA"
      />
</g>
</g>
<g opacity="0.8">
<g opacity="0.8">
<path
        opacity="0.8"
        d="M310.959 260.933C310.529 259.749 310.26 258.51 310.019 257.299C309.777 256.088 309.589 254.85 309.454 253.639C309.32 252.4 309.212 251.162 309.159 249.924C309.132 248.686 309.132 247.448 309.266 246.183C309.696 247.367 309.965 248.605 310.207 249.816C310.449 251.028 310.637 252.266 310.771 253.477C310.906 254.715 311.013 255.953 311.067 257.191C311.094 258.43 311.094 259.668 310.959 260.933Z"
        fill="#5B54CA"
      />
</g>
</g>
<g opacity="0.8">
<g opacity="0.8">
<path
        opacity="0.8"
        d="M268.171 246.776C269.219 247.476 270.187 248.257 271.127 249.091C272.041 249.926 272.955 250.787 273.788 251.675C274.648 252.563 275.455 253.506 276.261 254.448C277.04 255.417 277.793 256.412 278.438 257.489C277.39 256.789 276.422 256.009 275.481 255.174C274.568 254.34 273.654 253.479 272.821 252.59C271.961 251.702 271.154 250.76 270.348 249.818C269.568 248.849 268.816 247.853 268.171 246.776Z"
        fill="#5B54CA"
      />
</g>
</g>
<g opacity="0.8">
<g opacity="0.8">
<path
        opacity="0.8"
        d="M274.03 325.076C274.191 326.341 274.218 327.579 274.191 328.818C274.164 330.056 274.084 331.294 273.976 332.532C273.869 333.77 273.681 334.981 273.465 336.22C273.25 337.431 272.982 338.669 272.579 339.853C272.417 338.588 272.39 337.35 272.417 336.112C272.444 334.874 272.525 333.636 272.632 332.397C272.74 331.159 272.928 329.948 273.143 328.71C273.358 327.499 273.627 326.287 274.03 325.076Z"
        fill="#5B54CA"
      />
</g>
</g>
<path
    d="M277.444 207.827C277.337 207.827 277.229 207.827 277.148 207.827C267.043 207.747 258.361 203.602 252.852 200.129C246.885 196.388 243.364 192.7 243.23 192.566C242.961 192.297 242.988 191.866 243.257 191.624C243.525 191.355 243.955 191.381 244.197 191.651C244.332 191.785 258.442 206.347 277.175 206.482C288.383 206.562 299 201.583 308.756 191.624C309.025 191.355 309.455 191.355 309.697 191.624C309.939 191.893 309.965 192.324 309.697 192.566C299.779 202.686 288.921 207.827 277.444 207.827Z"
    fill="#303030"
  />
<path
    d="M274.352 212.17C272.09 214.435 272.09 218.108 274.352 220.373C276.614 222.638 280.281 222.638 282.543 220.373C284.805 218.108 284.805 214.435 282.543 212.17C280.281 209.905 276.614 209.905 274.352 212.17Z"
    fill="url(#paint15_linear_198_3532)"
  />
<path
    d="M279.702 208.069C279.702 208.769 279.137 209.334 278.439 209.334C277.74 209.334 277.175 208.769 277.175 208.069C277.175 207.369 277.74 206.804 278.439 206.804C279.137 206.804 279.702 207.369 279.702 208.069Z"
    fill="url(#paint16_linear_198_3532)"
  />
<g opacity="0.4">
<path
      opacity="0.4"
      d="M357.833 280.905C355.763 273.61 346.249 269.358 344.475 259.533C344.475 259.533 347.969 267.474 353.371 271.376C358.774 275.279 357.833 280.905 357.833 280.905Z"
      fill="#3C47A6"
    />
</g>
<g opacity="0.4">
<path
      opacity="0.4"
      d="M364.445 268.416C366.38 259.13 373.287 252.374 373.287 252.374C367.643 256.869 364.176 264.702 362.241 273.154L361.677 275.361C361.569 275.791 361.435 276.222 361.273 276.626C359.365 281.255 359.177 289.169 360.145 294.714C366.058 328.521 357.349 331.562 355.844 346.043L361.005 345.909C360.118 336.138 367.321 325.56 363.585 310.514C360.386 297.594 360.494 286.827 360.978 280.905C361.166 278.483 362.16 276.168 363.773 274.338C363.773 274.338 368.584 267.07 380.84 267.313C375.034 265.644 370.331 267.313 367.724 268.847C366.165 269.762 363.558 272.75 364.445 268.416Z"
      fill="#3C47A6"
    />
</g>
<g opacity="0.4">
<path
      opacity="0.4"
      d="M429.38 307.176C436.341 301.631 438.249 290.676 438.249 290.676C433.976 303.542 427.767 307.768 419.436 308.521C419.194 308.468 419.059 308.441 419.059 308.441C419.113 308.468 419.14 308.521 419.194 308.548C413.576 309.033 406.991 307.956 399.412 306.933C402.207 310.702 409.975 310.513 415.834 309.544C418.414 309.114 421.075 309.302 423.601 310.002C431.745 312.29 436.906 307.795 436.906 307.795C434.729 308.656 432.417 309.087 430.213 309.248C429.031 309.41 426.128 309.76 429.38 307.176Z"
      fill="#3C47A6"
    />
</g>
<g opacity="0.4">
<path
      opacity="0.4"
      d="M371.191 346.016C371.191 346.016 372.992 342.274 379.765 338.291C385.275 335.061 387.075 330.027 387.075 330.027C387.075 330.027 384.603 335.734 376.997 337.564C369.364 339.394 367.24 346.016 367.24 346.016H371.191Z"
      fill="#3C47A6"
    />
</g>
<g opacity="0.4">
<path
      opacity="0.4"
      d="M189.932 346.016C188.803 337.322 174.747 329.435 184.046 288.361C185.524 281.901 185.256 272.184 182.46 267.285C182.46 267.285 186.841 277.917 180.149 293.394C175.069 305.157 172.489 318.211 181.197 331.858C187.191 341.252 187.191 346.016 187.191 346.016H189.932Z"
      fill="#3C47A6"
    />
</g>
<g opacity="0.4">
<path
      opacity="0.4"
      d="M166.791 327.067C166.791 327.067 168.592 333.043 174.102 336.838C180.901 341.548 182.675 345.99 182.675 345.99H185.39C185.39 345.99 183.562 340.606 175.23 335.896C168.861 332.316 166.791 327.067 166.791 327.067Z"
      fill="#3C47A6"
    />
</g>
<g opacity="0.4">
<path
      opacity="0.4"
      d="M181.466 266.962C181.466 266.962 175.902 263.517 166.361 265.563C171.253 263.867 176.064 263.867 177.596 263.894C180.606 263.921 179.665 262.71 178.402 260.583C172.328 250.409 166.173 246.883 166.173 246.883C173.779 250.813 179.047 258.215 181.815 265.428L182.46 267.312L181.466 266.962Z"
      fill="#3C47A6"
    />
</g>
<g opacity="0.4">
<path
      opacity="0.4"
      d="M199.366 259.533C197.297 266.828 187.782 271.08 186.008 280.905C186.008 280.905 185.39 273.368 191.196 268.819C198.184 263.328 199.366 259.533 199.366 259.533Z"
      fill="#3C47A6"
    />
</g>
<g opacity="0.4">
<path
      opacity="0.4"
      d="M155.26 303.73C155.26 303.73 164.963 299.747 164.855 286.369C164.855 286.342 164.721 304.484 155.26 303.73Z"
      fill="#3C47A6"
    />
</g>
<g opacity="0.4">
<path
      opacity="0.4"
      d="M118.52 300.635C118.52 300.635 128.625 308.629 140.183 306.664C140.183 306.664 125.857 310.729 114.73 299.801L118.52 300.635Z"
      fill="#3C47A6"
    />
</g>
<g opacity="0.4">
<path
      opacity="0.4"
      d="M251.83 243.599C251.83 243.599 277.793 257.515 302.896 241.769C302.896 241.769 281.502 263.006 251.83 243.599Z"
      fill="#3C47A6"
    />
</g>
<g opacity="0.4">
<path
      opacity="0.4"
      d="M255.082 334.361C255.082 334.361 286.34 330.835 313.405 345.666C313.405 345.666 291.205 328.17 255.082 334.361Z"
      fill="#3C47A6"
    />
</g>
<path
    d="M181.815 265.428C180.982 263.544 180.015 261.714 178.966 259.937C177.918 258.188 176.736 256.492 175.445 254.904C174.155 253.316 172.731 251.835 171.172 250.49C169.613 249.144 167.947 247.933 166.173 246.883C168.054 247.744 169.828 248.848 171.441 250.167C173.053 251.459 174.532 252.966 175.849 254.581C177.166 256.196 178.321 257.919 179.316 259.749C180.337 261.525 181.17 263.436 181.815 265.428Z"
    fill="#3C47A6"
  />
<path
    d="M189.905 346.016C189.636 344.348 188.937 342.786 188.185 341.306C187.432 339.799 186.626 338.318 185.873 336.811C184.341 333.796 183.132 330.593 182.272 327.309C181.439 324.026 180.982 320.634 180.82 317.27C180.659 313.878 180.767 310.514 181.035 307.122C181.546 300.393 182.702 293.691 184.073 287.096C184.341 285.454 184.529 283.759 184.583 282.09C184.664 280.421 184.664 278.725 184.556 277.056C184.476 275.388 184.288 273.719 183.965 272.077C183.804 271.242 183.616 270.435 183.347 269.627C183.105 268.82 182.809 268.039 182.406 267.286L182.46 267.259C182.89 267.986 183.266 268.739 183.562 269.547C183.858 270.354 184.099 271.162 184.314 271.996C184.718 273.638 184.959 275.334 185.067 277.029C185.175 278.725 185.201 280.421 185.094 282.117C184.986 283.812 184.798 285.508 184.476 287.177L183.374 292.13C183.024 293.772 182.702 295.44 182.406 297.082C182.111 298.751 181.869 300.42 181.654 302.089C181.439 303.758 181.277 305.453 181.17 307.122C180.928 310.487 180.901 313.878 181.143 317.216C181.25 318.885 181.465 320.58 181.707 322.222C181.949 323.891 182.299 325.533 182.702 327.148C183.105 328.79 183.589 330.378 184.18 331.966C184.771 333.554 185.443 335.088 186.142 336.596C186.868 338.13 187.647 339.61 188.373 341.145C189.072 342.679 189.744 344.267 189.932 345.963L189.905 346.016Z"
    fill="#3C47A6"
  />
<path
    d="M162.034 297.512C162.275 301.711 162.705 305.856 163.297 310.002C163.915 314.147 164.587 318.265 165.581 322.356C166.603 326.421 168 330.404 169.855 334.146C170.339 335.088 170.795 336.03 171.199 336.999C171.629 337.968 172.032 338.937 172.381 339.933C173.08 341.924 173.698 343.943 174.021 346.016H173.967C173.806 345.504 173.644 345.02 173.483 344.508C173.322 344.024 173.134 343.513 172.973 343.028C172.623 342.032 172.247 341.063 171.871 340.094C171.494 339.125 171.118 338.156 170.715 337.187C170.312 336.218 169.909 335.249 169.505 334.28C167.785 330.431 166.468 326.447 165.366 322.383C164.237 318.346 163.35 314.227 162.813 310.055C162.544 307.983 162.329 305.883 162.168 303.784C162.034 301.684 161.926 299.585 161.953 297.485L162.034 297.512Z"
    fill="#3C47A6"
  />
<path
    d="M115.671 333.822C116.423 335.168 117.257 336.46 118.144 337.671C118.6 338.29 119.057 338.883 119.541 339.475C119.676 339.609 119.783 339.771 119.917 339.905L120.294 340.336C120.563 340.605 120.804 340.901 121.073 341.17C122.121 342.274 123.25 343.297 124.487 344.158C125.105 344.616 125.75 344.993 126.449 345.316C127.121 345.639 127.846 345.908 128.626 345.988C128.249 346.015 127.846 345.935 127.47 345.854L127.201 345.773L126.932 345.692C126.744 345.639 126.556 345.558 126.395 345.504C126.207 345.45 126.045 345.369 125.857 345.289C125.669 345.208 125.508 345.127 125.347 345.046L124.836 344.777L124.352 344.481C123.035 343.647 121.853 342.651 120.751 341.547C120.482 341.278 120.213 340.982 119.944 340.713C119.676 340.444 119.407 340.148 119.165 339.852C118.681 339.259 118.197 338.64 117.794 337.994C116.907 336.648 116.182 335.276 115.671 333.822Z"
    fill="#3C47A6"
  />
<path
    d="M166.791 327.067C167.167 328.036 167.651 328.978 168.162 329.867C168.672 330.755 169.264 331.616 169.909 332.451C171.172 334.093 172.677 335.546 174.37 336.704C176.09 337.915 177.703 339.287 179.154 340.822C179.88 341.602 180.552 342.41 181.143 343.271C181.439 343.702 181.735 344.132 182.003 344.59C182.272 345.048 182.514 345.505 182.702 345.99C182.218 345.075 181.627 344.213 180.955 343.406C180.31 342.598 179.585 341.845 178.859 341.091C177.381 339.637 175.768 338.318 174.048 337.134C173.188 336.542 172.355 335.842 171.602 335.115C170.849 334.362 170.151 333.554 169.559 332.693C168.323 330.997 167.355 329.086 166.791 327.067Z"
    fill="#3C47A6"
  />
<path
    d="M181.466 266.962C180.283 266.424 179.047 266.074 177.81 265.805C176.574 265.535 175.311 265.347 174.021 265.266C173.376 265.239 172.758 265.185 172.113 265.185C171.79 265.185 171.468 265.159 171.145 265.185C170.822 265.212 170.5 265.212 170.177 265.212C170.016 265.212 169.855 265.212 169.694 265.239L169.21 265.293L168.242 265.374C167.597 265.428 166.979 265.535 166.307 265.589C166.925 265.428 167.543 265.239 168.189 265.105L169.156 264.943L169.64 264.862C169.801 264.836 169.962 264.836 170.124 264.809C171.414 264.647 172.731 264.647 174.021 264.728C175.311 264.836 176.601 265.051 177.864 265.401C179.154 265.751 180.391 266.235 181.466 266.962Z"
    fill="#3C47A6"
  />
<path
    d="M199.366 259.533C199.124 260.583 198.721 261.579 198.21 262.521C197.699 263.463 197.081 264.351 196.436 265.186C195.119 266.881 193.668 268.416 192.27 270.031C190.873 271.619 189.529 273.261 188.427 275.064C187.325 276.867 186.492 278.832 186.008 280.905C186.142 279.855 186.411 278.805 186.733 277.783C187.083 276.76 187.54 275.791 188.05 274.849C189.099 272.965 190.443 271.269 191.84 269.681C193.238 268.093 194.743 266.558 196.087 264.943C197.457 263.302 198.694 261.552 199.366 259.533Z"
    fill="#3C47A6"
  />
<path
    d="M357.833 280.905C357.134 278.886 355.925 277.137 354.581 275.495C353.237 273.88 351.732 272.345 350.334 270.757C348.937 269.142 347.593 267.474 346.545 265.589C346.007 264.647 345.577 263.678 345.228 262.656C344.878 261.633 344.636 260.61 344.502 259.533C344.986 261.606 345.819 263.571 346.921 265.374C348.023 267.177 349.34 268.819 350.764 270.407C352.162 271.996 353.64 273.557 354.93 275.252C355.575 276.087 356.193 276.975 356.704 277.917C357.188 278.859 357.618 279.855 357.833 280.905Z"
    fill="#3C47A6"
  />
<path
    d="M362.241 273.126C362.591 271.161 363.048 269.196 363.666 267.285C364.257 265.374 365.01 263.49 365.87 261.687C366.757 259.883 367.778 258.134 369.014 256.546C370.251 254.958 371.675 253.504 373.288 252.347C371.783 253.666 370.492 255.2 369.337 256.788C368.181 258.403 367.213 260.126 366.327 261.902C365.44 263.679 364.714 265.536 364.042 267.393C363.397 269.304 362.806 271.215 362.241 273.126Z"
    fill="#3C47A6"
  />
<path
    d="M355.844 346.016C355.952 344.536 356.194 343.055 356.489 341.602C356.785 340.149 357.188 338.695 357.618 337.268C358.048 335.842 358.532 334.442 358.989 333.016C359.446 331.616 359.876 330.189 360.252 328.763C361.005 325.91 361.515 322.976 361.811 320.042C362.08 317.081 362.16 314.12 362.026 311.159C361.784 305.211 360.816 299.343 359.741 293.502C359.526 292.022 359.392 290.541 359.338 289.034C359.284 287.554 359.311 286.046 359.419 284.566C359.526 283.086 359.741 281.578 360.064 280.125C360.225 279.398 360.44 278.671 360.682 277.971C360.924 277.272 361.22 276.572 361.569 275.926L361.623 275.953C361.327 276.626 361.112 277.352 360.924 278.052C360.736 278.752 360.575 279.479 360.44 280.206C360.198 281.659 360.037 283.139 359.956 284.593C359.849 286.073 359.849 287.554 359.903 289.007C359.93 290.488 360.037 291.968 360.225 293.421C361.139 299.289 361.918 305.211 362.214 311.133C362.348 314.093 362.375 317.081 362.187 320.069C361.999 323.057 361.488 325.99 360.736 328.897C359.956 331.777 358.935 334.577 357.968 337.376C357.027 340.175 356.301 343.055 355.898 346.016H355.844Z"
    fill="#3C47A6"
  />
<path
    d="M363.799 274.311C364.659 272.965 365.842 271.808 367.132 270.865C368.422 269.896 369.874 269.143 371.379 268.551C372.158 268.308 372.911 268.012 373.69 267.851C374.093 267.77 374.47 267.662 374.873 267.582C375.276 267.528 375.679 267.447 376.055 267.393C376.243 267.366 376.458 267.339 376.647 267.312L377.238 267.286L378.447 267.205C378.85 267.178 379.254 267.232 379.657 267.232C380.06 267.232 380.463 267.259 380.866 267.286C380.06 267.366 379.28 267.393 378.474 267.474L377.292 267.635L376.7 267.716C376.512 267.743 376.324 267.797 376.109 267.824C375.733 267.905 375.33 267.985 374.953 268.039C374.577 268.12 374.201 268.228 373.798 268.335C373.018 268.524 372.292 268.793 371.54 269.062C370.062 269.627 368.664 270.354 367.347 271.215C366.057 272.077 364.821 273.073 363.799 274.311Z"
    fill="#3C47A6"
  />
<path
    d="M419.059 308.441C419.811 308.549 420.537 308.683 421.289 308.737C422.042 308.818 422.795 308.899 423.547 308.952C425.052 309.06 426.53 309.114 428.036 309.114L429.164 309.087L430.293 309.006C430.669 309.006 431.046 308.952 431.422 308.898L431.986 308.845C432.175 308.818 432.363 308.818 432.551 308.764L433.653 308.576C434.029 308.522 434.378 308.414 434.755 308.36C435.507 308.252 436.206 307.983 436.932 307.795C435.561 308.414 434.11 308.898 432.605 309.168C431.099 309.437 429.594 309.598 428.062 309.625C426.53 309.625 425.025 309.545 423.52 309.356C421.988 309.195 420.51 308.899 419.059 308.441Z"
    fill="#3C47A6"
  />
<path
    d="M142.709 255.63C143.515 255.738 144.295 255.926 145.074 256.168C145.854 256.384 146.633 256.653 147.386 256.949C148.891 257.541 150.369 258.241 151.767 259.075C153.164 259.91 154.481 260.879 155.717 261.955C156.954 263.032 158.056 264.243 159.05 265.535C159.561 266.181 159.991 266.854 160.448 267.554C160.851 268.254 161.308 268.954 161.657 269.68C162.034 270.407 162.329 271.161 162.679 271.914C162.813 272.291 162.947 272.695 163.109 273.072L163.324 273.637L163.485 274.229C164.426 277.351 164.829 280.608 164.856 283.865C164.641 280.635 164.076 277.432 163.109 274.364L162.921 273.799L162.706 273.233L162.275 272.103C161.926 271.376 161.63 270.622 161.254 269.923C161.066 269.573 160.905 269.196 160.69 268.873L160.072 267.85C159.615 267.177 159.185 266.504 158.674 265.885C156.739 263.328 154.293 261.175 151.578 259.452C150.235 258.591 148.81 257.837 147.305 257.191C145.827 256.518 144.295 255.98 142.709 255.63Z"
    fill="#3C47A6"
  />
<path
    d="M155.26 303.73C156.04 303.327 156.765 302.842 157.437 302.304C158.109 301.765 158.754 301.173 159.346 300.554C159.937 299.935 160.501 299.262 160.985 298.562C161.496 297.863 161.953 297.136 162.329 296.355C162.732 295.602 163.081 294.821 163.377 293.987C163.458 293.798 163.511 293.583 163.592 293.368C163.646 293.152 163.727 292.964 163.78 292.748C163.888 292.318 164.022 291.914 164.103 291.483C164.506 289.788 164.721 288.065 164.828 286.315C164.936 288.065 164.855 289.841 164.533 291.564C164.21 293.314 163.619 294.983 162.813 296.571C161.979 298.132 160.904 299.585 159.641 300.796C158.351 302.062 156.873 303.084 155.26 303.73Z"
    fill="#3C47A6"
  />
<path
    d="M391.699 307.714C391.752 309.41 391.645 311.106 391.51 312.775C391.43 313.609 391.349 314.47 391.215 315.305C391.107 316.139 390.973 316.974 390.812 317.808C390.247 321.146 389.28 324.403 388.097 327.579C387.506 329.167 386.914 330.728 386.216 332.289L385.705 333.447L385.167 334.577L384.603 335.708C384.415 336.084 384.227 336.461 384.039 336.838C383.286 338.345 382.56 339.853 381.861 341.387C381.512 342.141 381.163 342.921 380.84 343.675C380.679 344.052 380.518 344.455 380.356 344.832C380.195 345.209 380.034 345.613 379.899 346.017H379.846C380.141 344.348 380.706 342.733 381.351 341.172C381.673 340.391 382.023 339.61 382.426 338.857C382.829 338.103 383.205 337.349 383.635 336.623C384.522 335.169 385.329 333.716 386.027 332.182C386.726 330.647 387.371 329.086 387.909 327.498C388.957 324.295 389.683 321.011 390.328 317.7C390.946 314.39 391.403 311.052 391.618 307.688H391.699V307.714Z"
    fill="#3C47A6"
  />
<path
    d="M387.075 330.027C386.457 331.831 385.436 333.5 384.173 334.98C382.909 336.433 381.377 337.672 379.711 338.641C378.071 339.61 376.513 340.659 375.034 341.871C374.309 342.49 373.61 343.109 372.938 343.809C372.293 344.481 371.675 345.208 371.164 346.043C371.352 345.612 371.621 345.208 371.89 344.804C372.158 344.401 372.454 344.024 372.75 343.647C373.368 342.92 374.04 342.22 374.766 341.575C376.19 340.283 377.776 339.179 379.415 338.183C381.055 337.241 382.533 336.057 383.823 334.684C384.146 334.334 384.468 333.984 384.764 333.607C385.059 333.23 385.355 332.854 385.624 332.477C386.188 331.723 386.672 330.889 387.075 330.027Z"
    fill="#3C47A6"
  />
<path
    d="M415.162 269.734C413.711 270.03 412.313 270.434 410.915 270.946C409.545 271.43 408.174 272.022 406.884 272.695C405.594 273.368 404.33 274.122 403.148 274.956C401.965 275.818 400.836 276.733 399.815 277.782C398.794 278.832 397.88 279.963 397.047 281.147C396.24 282.358 395.568 283.65 394.977 284.996C393.875 287.715 393.257 290.595 393.015 293.555C393.042 290.595 393.526 287.634 394.574 284.861C395.112 283.462 395.81 282.143 396.59 280.878C397.423 279.64 398.364 278.482 399.385 277.406C401.481 275.279 403.981 273.583 406.669 272.318C409.383 271.026 412.232 270.138 415.162 269.734Z"
    fill="#3C47A6"
  />
<path
    d="M118.52 300.635C119.326 301.173 120.133 301.685 120.993 302.142C121.826 302.6 122.686 303.057 123.546 303.461C124.406 303.865 125.293 304.242 126.18 304.591C127.067 304.941 127.981 305.264 128.895 305.534C129.808 305.803 130.722 306.045 131.663 306.233C132.604 306.422 133.544 306.583 134.485 306.664C135.426 306.772 136.393 306.826 137.334 306.799C138.301 306.826 139.242 306.718 140.21 306.637C138.328 307.041 136.366 307.202 134.431 307.068C132.496 306.96 130.588 306.583 128.706 306.018C126.852 305.453 125.051 304.699 123.331 303.811C121.638 302.923 119.998 301.873 118.52 300.635Z"
    fill="#3C47A6"
  />
<path
    d="M438.276 290.703C437.738 292.614 437.039 294.525 436.233 296.356C435.4 298.186 434.379 299.935 433.142 301.524C430.643 304.7 427.122 306.988 423.252 308.064C421.316 308.603 419.301 308.872 417.312 308.926C415.296 309.006 413.307 308.926 411.291 308.737C407.313 308.36 403.363 307.687 399.438 306.988V306.934C403.416 307.284 407.367 307.822 411.345 308.145C413.334 308.307 415.296 308.441 417.285 308.414C419.274 308.387 421.236 308.199 423.171 307.768C425.106 307.311 426.961 306.53 428.6 305.426C428.815 305.292 429.003 305.13 429.191 304.996L429.783 304.538C430.159 304.215 430.508 303.865 430.858 303.515L431.368 302.977C431.53 302.789 431.718 302.627 431.852 302.412L432.309 301.847L432.551 301.55L432.766 301.254C433.949 299.666 434.97 297.971 435.857 296.194C436.744 294.418 437.496 292.56 438.222 290.703H438.276Z"
    fill="#3C47A6"
  />
<path
    d="M251.83 243.599C253.845 244.541 255.915 245.349 258.038 246.022C260.135 246.695 262.285 247.287 264.462 247.744C268.789 248.66 273.224 249.117 277.658 249.009C279.862 248.956 282.066 248.794 284.27 248.471C286.447 248.121 288.624 247.664 290.748 247.072C292.871 246.452 294.967 245.726 296.983 244.811L297.736 244.488L298.112 244.326L298.488 244.138L299.966 243.384C300.477 243.142 300.934 242.873 301.418 242.603L302.869 241.796C300.988 242.98 299.079 244.138 297.037 245.053C295.021 246.022 292.925 246.802 290.801 247.475L289.189 247.933C288.92 248.014 288.651 248.067 288.382 248.148L287.576 248.337C287.039 248.471 286.501 248.579 285.937 248.686L284.297 248.983C282.093 249.306 279.862 249.494 277.632 249.575C275.401 249.602 273.17 249.494 270.939 249.252C268.708 249.009 266.504 248.66 264.354 248.148C260.027 247.098 255.781 245.672 251.83 243.599Z"
    fill="#3C47A6"
  />
<path
    d="M222.884 198.11C222.48 198.972 222.131 199.86 221.862 200.775C221.567 201.69 221.325 202.605 221.137 203.521C220.76 205.378 220.599 207.262 220.653 209.146C220.68 210.088 220.787 211.03 220.948 211.945C221.11 212.861 221.352 213.776 221.647 214.691C222.239 216.494 223.099 218.19 224.12 219.805C222.911 218.325 221.916 216.629 221.244 214.825C220.895 213.91 220.653 212.995 220.438 212.026C220.25 211.084 220.142 210.115 220.088 209.146C220.008 207.208 220.223 205.27 220.68 203.386C221.217 201.556 221.889 199.752 222.884 198.11Z"
    fill="#3C47A6"
  />
<path
    d="M329.424 194.585C330.66 196.173 331.601 197.976 332.246 199.888C332.891 201.799 333.241 203.844 333.16 205.863C333.106 206.886 332.945 207.882 332.703 208.878C332.434 209.874 332.058 210.816 331.601 211.704C330.66 213.507 329.343 215.095 327.838 216.414C329.209 214.934 330.365 213.319 331.225 211.542C331.628 210.627 331.977 209.712 332.192 208.77C332.407 207.801 332.569 206.832 332.596 205.863C332.649 204.894 332.569 203.898 332.461 202.929C332.327 201.96 332.112 200.991 331.843 200.049C331.547 199.107 331.225 198.165 330.822 197.25C330.419 196.335 329.962 195.446 329.424 194.585Z"
    fill="#3C47A6"
  />
<path
    d="M255.082 334.361C260.081 333.796 265.107 333.742 270.133 333.958C272.633 334.065 275.159 334.281 277.659 334.55C280.158 334.846 282.658 335.196 285.131 335.626C290.076 336.569 294.968 337.78 299.725 339.449C304.482 341.09 309.078 343.163 313.432 345.639C311.175 344.509 308.944 343.405 306.605 342.463L305.745 342.086L304.858 341.736L303.111 341.064L301.338 340.445L300.451 340.121L299.564 339.825C297.198 339.045 294.78 338.345 292.361 337.726C289.942 337.107 287.496 336.595 285.023 336.138C280.105 335.223 275.132 334.657 270.133 334.334C267.634 334.173 265.134 334.092 262.634 334.092C260.108 334.119 257.582 334.173 255.082 334.361Z"
    fill="#3C47A6"
  />
<path
    d="M122.605 301.147L116.88 300.42C114.676 300.151 112.714 298.832 111.639 296.867C110.027 293.96 107.527 289.599 105.404 286.692C100.861 280.502 100.378 268.847 108.172 268.685C110.349 268.631 112.446 267.824 114.166 266.505C115.59 265.428 118.332 265.321 121.1 263.383C125.83 260.099 129.271 254.016 142.655 256.357C146.391 257.003 150.235 259.049 153.514 263.867C155.825 267.286 157.196 271.242 157.653 275.334C157.868 277.245 158.163 279.667 158.62 282.036C159.292 285.589 158.835 289.276 157.357 292.56C156.309 294.875 155.314 297.89 155.073 301.362L155.449 311.832C155.449 311.832 157.303 319.719 154.911 325.291C153.675 328.224 149.643 328.628 147.869 325.964C146.687 324.187 145.692 321.549 145.692 317.7C145.692 317.7 138.973 316.22 140.183 305.372C140.183 305.372 133.893 306.987 131.878 300.743C131.905 300.743 126.798 306.611 122.605 301.147Z"
    fill="#FFC89F"
  />
<path
    d="M417.016 302.922L422.741 302.249C424.945 302.007 426.907 300.688 428.009 298.75C429.649 295.843 432.202 291.537 434.352 288.657C438.975 282.52 439.593 270.865 431.799 270.623C429.622 270.542 427.552 269.707 425.832 268.362C424.408 267.258 421.693 267.123 418.925 265.159C414.221 261.821 410.888 255.711 397.45 257.864C393.714 258.456 389.817 260.448 386.511 265.239C384.173 268.631 382.721 272.561 382.237 276.652C381.996 278.536 381.673 280.959 381.189 283.327C380.49 286.88 380.867 290.568 382.318 293.878C383.339 296.193 384.28 299.235 384.495 302.707L383.984 313.178C383.984 313.178 382.049 321.037 384.361 326.636C385.57 329.597 389.602 330.027 391.403 327.389C392.612 325.64 393.633 323.002 393.66 319.153C393.66 319.153 400.406 317.753 399.331 306.906C399.331 306.906 405.594 308.602 407.69 302.384C407.717 302.384 412.743 308.306 417.016 302.922Z"
    fill="#FFC89F"
  />
<path
    d="M155.879 274.337C155.422 275.387 154.965 276.41 154.535 277.433C154.32 277.944 154.105 278.483 153.971 278.994C153.944 279.102 153.917 279.263 153.89 279.398C153.863 279.532 153.836 279.667 153.836 279.802C153.809 280.071 153.783 280.367 153.756 280.636C153.702 281.201 153.675 281.766 153.675 282.332C153.675 282.897 153.702 283.462 153.756 284.027C153.863 285.158 154.024 286.261 154.213 287.392C154.401 288.496 154.589 289.626 154.75 290.757C154.911 291.887 155.073 293.018 155.18 294.148C155.368 296.409 155.449 298.697 155.153 300.958H155.099C155.046 298.697 154.858 296.436 154.616 294.202L154.239 290.837C154.105 289.707 153.971 288.576 153.89 287.446L153.621 284.054L153.487 282.359C153.433 281.793 153.406 281.228 153.406 280.636C153.406 280.071 153.433 279.505 153.514 278.913C153.648 278.321 153.89 277.81 154.132 277.271C154.616 276.249 155.207 275.253 155.852 274.311L155.879 274.337Z"
    fill="#FF9A6C"
  />
<path
    d="M139.753 278.833C140.29 280.421 140.721 282.063 141.097 283.705C141.473 285.347 141.822 286.989 142.091 288.658C142.333 290.326 142.548 291.995 142.79 293.664C143.032 295.333 143.301 297.002 143.543 298.644L144.295 303.623C144.537 305.292 144.806 306.961 144.994 308.63C145.397 311.967 145.693 315.332 145.773 318.696H145.72C145.317 315.359 144.886 312.021 144.456 308.683C144.241 307.015 144.026 305.346 143.811 303.677C143.596 302.008 143.381 300.339 143.22 298.67L142.978 296.167C142.871 295.333 142.763 294.498 142.629 293.664C142.387 291.995 142.011 290.353 141.688 288.711L139.726 278.833H139.753Z"
    fill="#FF9A6C"
  />
<path
    d="M123.519 277.218C124.406 277.837 125.078 278.698 125.669 279.613C126.234 280.529 126.717 281.497 127.067 282.493C127.766 284.512 128.061 286.639 128.653 288.684L130.373 294.794C130.937 296.84 131.475 298.886 131.985 300.958L131.932 300.985C131.098 299.02 130.427 297.001 129.835 294.956C129.271 292.91 128.76 290.838 128.384 288.738C128.196 287.688 127.981 286.639 127.712 285.643C127.416 284.62 127.04 283.624 126.637 282.682C126.234 281.713 125.804 280.744 125.293 279.829C125.051 279.371 124.755 278.914 124.46 278.483C124.164 278.052 123.842 277.622 123.465 277.272L123.519 277.218Z"
    fill="#FF9A6C"
  />
<path
    d="M111.72 278.833C112.311 279.694 112.849 280.583 113.359 281.471C113.87 282.359 114.381 283.274 114.838 284.216L115.483 285.616C115.698 286.1 115.913 286.558 116.128 287.016C116.585 287.958 117.095 288.846 117.579 289.761C118.09 290.649 118.573 291.565 119.057 292.507C119.514 293.422 119.998 294.364 120.428 295.306C121.288 297.19 122.067 299.128 122.605 301.147L122.551 301.174C121.691 299.29 120.804 297.432 119.917 295.575L118.627 292.749C118.197 291.807 117.767 290.865 117.337 289.923C116.907 288.981 116.477 288.038 115.993 287.123C115.509 286.208 114.945 285.32 114.434 284.432C113.924 283.543 113.467 282.601 112.983 281.686C112.526 280.771 112.069 279.829 111.666 278.86L111.72 278.833Z"
    fill="#FF9A6C"
  />
<path
    d="M143.677 300.635C143.838 301.173 143.865 301.765 143.811 302.331C143.757 302.896 143.569 303.488 143.247 303.999C142.924 304.511 142.44 304.915 141.903 305.157C141.365 305.399 140.774 305.453 140.209 305.372C140.747 305.211 141.258 305.049 141.715 304.78C142.145 304.511 142.521 304.134 142.79 303.703C143.058 303.273 143.273 302.788 143.408 302.25C143.542 301.738 143.623 301.173 143.677 300.635Z"
    fill="#FF9A6C"
  />
<path
    d="M127.389 264.567C126.798 264.917 126.287 265.321 125.884 265.806C125.481 266.29 125.212 266.855 125.105 267.474C124.997 268.093 125.024 268.739 125.185 269.359C125.347 269.978 125.669 270.57 126.072 271.081C125.508 270.704 125.051 270.139 124.782 269.493C124.513 268.847 124.433 268.093 124.54 267.394C124.594 267.044 124.701 266.694 124.863 266.371C125.024 266.048 125.266 265.752 125.508 265.509C126.099 265.025 126.717 264.675 127.389 264.567Z"
    fill="#FF9A6C"
  />
<path
    d="M117.149 267.446C116.504 267.769 115.859 268.146 115.294 268.55C114.999 268.765 114.73 268.981 114.488 269.223C114.246 269.465 114.031 269.734 113.843 270.003C113.655 270.299 113.547 270.596 113.494 270.919C113.413 271.242 113.386 271.591 113.413 271.941C113.467 272.614 113.682 273.314 114.112 273.906C113.52 273.449 113.144 272.722 113.01 271.968C112.983 271.78 112.956 271.591 112.956 271.403C112.956 271.215 112.956 271.026 113.01 270.838C113.037 270.461 113.171 270.057 113.386 269.707C113.789 269.034 114.407 268.55 115.079 268.173C115.724 267.796 116.423 267.554 117.149 267.446Z"
    fill="#FF9A6C"
  />
<path
    d="M114.757 298.777C115.16 298.616 115.536 298.481 115.913 298.347C116.289 298.212 116.665 298.078 117.041 297.943C117.794 297.674 118.52 297.378 119.299 297.055C119.057 297.405 118.708 297.674 118.358 297.889C118.009 298.104 117.606 298.293 117.23 298.454C116.826 298.589 116.423 298.697 115.993 298.75C115.617 298.804 115.187 298.831 114.757 298.777Z"
    fill="#FF9A6C"
  />
<path
    d="M140.209 264.782C140.505 264.944 140.774 265.186 140.962 265.482C141.15 265.778 141.311 266.101 141.392 266.424C141.473 266.747 141.526 267.097 141.526 267.447C141.526 267.797 141.473 268.12 141.338 268.443C141.15 267.77 141.043 267.178 140.881 266.559C140.801 266.263 140.693 265.967 140.586 265.67C140.478 265.401 140.344 265.105 140.209 264.782Z"
    fill="#FF9A6C"
  />
<path
    d="M383.823 275.898C384.468 276.841 385.059 277.81 385.543 278.859C385.785 279.371 386.027 279.909 386.161 280.501C386.269 281.093 386.269 281.659 386.269 282.224C386.269 282.789 386.242 283.354 386.188 283.946L386.054 285.642L385.785 289.034C385.677 290.164 385.543 291.295 385.435 292.425L385.059 295.79C384.817 298.024 384.602 300.285 384.575 302.546H384.522C384.226 300.285 384.307 297.997 384.495 295.736C384.602 294.605 384.737 293.475 384.925 292.344C385.086 291.214 385.274 290.11 385.462 288.98C385.65 287.876 385.839 286.746 385.919 285.615C385.973 285.05 386 284.485 386 283.92C386 283.354 385.973 282.789 385.919 282.224C385.892 281.955 385.865 281.659 385.839 281.389C385.812 281.255 385.812 281.12 385.785 280.986C385.758 280.851 385.758 280.716 385.704 280.582C385.57 280.07 385.355 279.532 385.14 279.021C384.71 277.998 384.226 276.948 383.796 275.925L383.823 275.898Z"
    fill="#FF9A6C"
  />
<path
    d="M399.922 280.421L397.96 290.299C397.611 291.941 397.261 293.583 397.02 295.252C396.885 296.086 396.778 296.921 396.67 297.755L396.428 300.258C396.267 301.927 396.052 303.596 395.837 305.265C395.622 306.934 395.407 308.602 395.192 310.271C394.735 313.609 394.305 316.92 393.929 320.284H393.875C393.956 316.92 394.251 313.555 394.654 310.217C394.843 308.549 395.111 306.88 395.353 305.211L396.106 300.231C396.348 298.563 396.616 296.894 396.858 295.252C397.1 293.583 397.288 291.914 397.557 290.245C397.826 288.577 398.175 286.935 398.552 285.293C398.928 283.651 399.358 282.036 399.895 280.421H399.922Z"
    fill="#FF9A6C"
  />
<path
    d="M416.129 278.859C415.753 279.236 415.431 279.64 415.135 280.071C414.839 280.501 414.57 280.959 414.302 281.417C413.791 282.332 413.361 283.301 412.958 284.27C412.555 285.239 412.178 286.235 411.883 287.231C411.614 288.253 411.399 289.303 411.211 290.326C410.835 292.425 410.324 294.498 409.76 296.544C409.168 298.589 408.496 300.608 407.663 302.573L407.609 302.546C408.12 300.473 408.658 298.428 409.222 296.382L410.942 290.272C411.533 288.226 411.829 286.127 412.528 284.081C412.877 283.085 413.361 282.089 413.925 281.201C414.517 280.313 415.189 279.425 416.076 278.806L416.129 278.859Z"
    fill="#FF9A6C"
  />
<path
    d="M427.955 280.448C427.552 281.39 427.095 282.332 426.638 283.274C426.181 284.189 425.697 285.131 425.187 286.02C424.676 286.908 424.112 287.796 423.628 288.711C423.144 289.626 422.687 290.568 422.284 291.51C421.854 292.453 421.451 293.395 420.994 294.337L419.704 297.163C418.817 299.02 417.903 300.877 417.07 302.762L417.016 302.735C417.554 300.716 418.333 298.778 419.193 296.894C419.623 295.952 420.08 295.037 420.564 294.094C421.021 293.179 421.531 292.264 422.042 291.349C422.553 290.434 423.037 289.546 423.493 288.604C423.735 288.146 423.95 287.661 424.139 287.204L424.784 285.804C425.24 284.862 425.751 283.974 426.262 283.059C426.772 282.17 427.31 281.282 427.901 280.421L427.955 280.448Z"
    fill="#FF9A6C"
  />
<path
    d="M395.945 302.224C395.998 302.789 396.079 303.327 396.213 303.839C396.348 304.35 396.536 304.861 396.832 305.292C397.1 305.723 397.477 306.1 397.907 306.369C398.364 306.638 398.874 306.826 399.412 306.961C398.847 307.042 398.256 306.961 397.719 306.746C397.181 306.503 396.697 306.1 396.375 305.588C396.052 305.077 395.864 304.512 395.81 303.919C395.757 303.327 395.783 302.762 395.945 302.224Z"
    fill="#FF9A6C"
  />
<path
    d="M412.232 266.154C412.904 266.262 413.549 266.585 414.06 267.069C414.329 267.312 414.544 267.608 414.705 267.931C414.866 268.254 415.001 268.604 415.027 268.954C415.135 269.653 415.054 270.38 414.786 271.053C414.517 271.699 414.087 272.264 413.496 272.641C413.926 272.13 414.221 271.538 414.382 270.919C414.544 270.299 414.571 269.68 414.463 269.034C414.356 268.415 414.087 267.85 413.684 267.366C413.334 266.908 412.824 266.504 412.232 266.154Z"
    fill="#FF9A6C"
  />
<path
    d="M422.472 269.035C423.198 269.143 423.897 269.412 424.569 269.762C425.214 270.139 425.832 270.623 426.262 271.296C426.477 271.619 426.611 272.023 426.638 272.427C426.665 272.615 426.665 272.803 426.692 272.992C426.692 273.18 426.665 273.369 426.638 273.557C426.504 274.311 426.127 275.038 425.536 275.495C425.966 274.903 426.181 274.203 426.235 273.53C426.262 273.18 426.235 272.83 426.154 272.507C426.101 272.157 425.966 271.861 425.805 271.592C425.617 271.323 425.402 271.054 425.16 270.812C424.918 270.569 424.649 270.354 424.354 270.139C423.762 269.735 423.117 269.358 422.472 269.035Z"
    fill="#FF9A6C"
  />
<path
    d="M424.865 300.366C424.434 300.42 424.031 300.42 423.601 300.366C423.171 300.312 422.768 300.204 422.365 300.07C421.962 299.935 421.586 299.747 421.236 299.504C420.887 299.289 420.537 299.02 420.295 298.67C421.075 298.993 421.8 299.289 422.553 299.558C422.929 299.693 423.306 299.827 423.682 299.962C424.085 300.07 424.461 300.204 424.865 300.366Z"
    fill="#FF9A6C"
  />
<path
    d="M399.412 266.37C399.277 266.693 399.143 266.962 399.035 267.258C398.928 267.554 398.82 267.851 398.74 268.147C398.578 268.739 398.444 269.358 398.283 270.031C398.148 269.708 398.095 269.358 398.095 269.035C398.095 268.685 398.148 268.362 398.229 268.012C398.31 267.689 398.471 267.366 398.659 267.07C398.874 266.801 399.116 266.559 399.412 266.37Z"
    fill="#FF9A6C"
  />
<defs>
<linearGradient
      id="paint0_linear_198_3532"
      x1="57.1158"
      y1="209.049"
      x2="187.832"
      y2="243.347"
      gradientUnits="userSpaceOnUse"
    >
<stop stop-color="#68C8FE" />
<stop offset="0.9999" stop-color="#5B40FD" />
</linearGradient>
<linearGradient
      id="paint1_linear_198_3532"
      x1="177.949"
      y1="344.226"
      x2="181.428"
      y2="347.596"
      gradientUnits="userSpaceOnUse"
    >
<stop stop-color="#68C8FE" />
<stop offset="0.9999" stop-color="#5B40FD" />
</linearGradient>
<linearGradient
      id="paint2_linear_198_3532"
      x1="188.257"
      y1="344.146"
      x2="191.891"
      y2="347.939"
      gradientUnits="userSpaceOnUse"
    >
<stop stop-color="#68C8FE" />
<stop offset="0.9999" stop-color="#5B40FD" />
</linearGradient>
<linearGradient
      id="paint3_linear_198_3532"
      x1="198.949"
      y1="345.006"
      x2="200.44"
      y2="348.246"
      gradientUnits="userSpaceOnUse"
    >
<stop stop-color="#68C8FE" />
<stop offset="0.9999" stop-color="#5B40FD" />
</linearGradient>
<linearGradient
      id="paint4_linear_198_3532"
      x1="209.47"
      y1="340.068"
      x2="220.52"
      y2="348.213"
      gradientUnits="userSpaceOnUse"
    >
<stop stop-color="#68C8FE" />
<stop offset="0.9999" stop-color="#5B40FD" />
</linearGradient>
<linearGradient
      id="paint5_linear_198_3532"
      x1="224.854"
      y1="345.086"
      x2="225.969"
      y2="348.318"
      gradientUnits="userSpaceOnUse"
    >
<stop stop-color="#68C8FE" />
<stop offset="0.9999" stop-color="#5B40FD" />
</linearGradient>
<linearGradient
      id="paint6_linear_198_3532"
      x1="151.888"
      y1="68.3597"
      x2="202.24"
      y2="89.3465"
      gradientUnits="userSpaceOnUse"
    >
<stop stop-color="#68C8FE" />
<stop offset="0.9999" stop-color="#5B40FD" />
</linearGradient>
<linearGradient
      id="paint7_linear_198_3532"
      x1="356.266"
      y1="194.316"
      x2="517.628"
      y2="242.359"
      gradientUnits="userSpaceOnUse"
    >
<stop stop-color="#68C8FE" />
<stop offset="0.9999" stop-color="#5B40FD" />
</linearGradient>
<linearGradient
      id="paint8_linear_198_3532"
      x1="266.6"
      y1="66.5294"
      x2="381.86"
      y2="138.25"
      gradientUnits="userSpaceOnUse"
    >
<stop stop-color="#68C8FE" />
<stop offset="0.9999" stop-color="#5B40FD" />
</linearGradient>
<linearGradient
      id="paint9_linear_198_3532"
      x1="126.811"
      y1="68.9657"
      x2="136.389"
      y2="71.9978"
      gradientUnits="userSpaceOnUse"
    >
<stop stop-color="#68C8FE" />
<stop offset="0.9999" stop-color="#5B40FD" />
</linearGradient>
<linearGradient
      id="paint10_linear_198_3532"
      x1="452.695"
      y1="119.474"
      x2="508.866"
      y2="166.167"
      gradientUnits="userSpaceOnUse"
    >
<stop stop-color="#68C8FE" />
<stop offset="0.9999" stop-color="#5B40FD" />
<stop offset="1" stop-color="#5D59FE" />
</linearGradient>
<linearGradient
      id="paint11_linear_198_3532"
      x1="6.83218"
      y1="164.048"
      x2="50.971"
      y2="204.488"
      gradientUnits="userSpaceOnUse"
    >
<stop stop-color="#68C8FE" />
<stop offset="0.9999" stop-color="#5B40FD" />
</linearGradient>
<linearGradient
      id="paint12_linear_198_3532"
      x1="140.429"
      y1="267.283"
      x2="294.162"
      y2="441.988"
      gradientUnits="userSpaceOnUse"
    >
<stop stop-color="#68C8FE" />
<stop offset="0.9999" stop-color="#5B40FD" />
</linearGradient>
<linearGradient
      id="paint13_linear_198_3532"
      x1="212.557"
      y1="113.752"
      x2="331.511"
      y2="180.755"
      gradientUnits="userSpaceOnUse"
    >
<stop stop-color="#68C8FE" />
<stop offset="0.9999" stop-color="#5B40FD" />
</linearGradient>
<linearGradient
      id="paint14_linear_198_3532"
      x1="217.349"
      y1="84.9233"
      x2="342.124"
      y2="158.104"
      gradientUnits="userSpaceOnUse"
    >
<stop stop-color="#68C8FE" />
<stop offset="0.9999" stop-color="#5B40FD" />
<stop offset="1" stop-color="#5D59FE" />
</linearGradient>
<linearGradient
      id="paint15_linear_198_3532"
      x1="275.045"
      y1="212.864"
      x2="278.11"
      y2="223.167"
      gradientUnits="userSpaceOnUse"
    >
<stop stop-color="#68C8FE" />
<stop offset="0.9999" stop-color="#5B40FD" />
</linearGradient>
<linearGradient
      id="paint16_linear_198_3532"
      x1="277.389"
      y1="208.069"
      x2="279.449"
      y2="209.183"
      gradientUnits="userSpaceOnUse"
    >
<stop stop-color="#68C8FE" />
<stop offset="0.9999" stop-color="#5B40FD" />
</linearGradient>
</defs>
</svg>
