<?xml version="1.0" encoding="UTF-8"?>
<svg id="Layer_2" data-name="Layer 2" xmlns="http://www.w3.org/2000/svg" viewBox="0 0 373.33 373.33">
  <defs>
    <style>
      .cls-1 {
        fill: #ffe556;
      }

      .cls-2 {
        fill: #ffe450;
      }

      .cls-3 {
        fill: #1f1f1a;
      }
    </style>
  </defs>
  <g id="Layer_1-2" data-name="Layer 1">
    <circle class="cls-1" cx="186.67" cy="186.67" r="186.67" transform="translate(-77.32 186.67) rotate(-45)"/>
    <path class="cls-3" d="m127.93,167.82c2.96,9.81,6.54,19.01,10.43,27.88,6.7,15.9,11.21,24.3,17.45,34.74,7.63,12.46,16.05,26.64,29.91,35.83,10.12,6.7,22.43,10.12,34.27,10.12,16.67,0,31-7.32,40.2-15.9,9.03-8.41,20.72-24.61,20.72-56.24,0-10.9,4.83-20.26,8.41-27.73,0-.16.16-.47.47-1.09,1.4-3.11,3.11-7.16,3.11-11.21,0-2.96-.78-6.38-2.8-9.34-3.11-5.29-8.72-7.16-13.87-7.16-11.99,0-20.26,8.41-24.46,16.99l-1.4,2.8c-1.71-2.49-3.43-5.14-4.83-7.47-4.36-7.63-6.85-12.77-9.03-19.32-1.71-5.14-3.11-11.05-4.05-15.9-2.65-15.27-7.01-20.26-14.18-22.12-5.29-1.4-11.52-.31-16.05,2.65-3.1-7.01-8.39-10.12-15.41-10.12-9.96,0-19.01,6.54-19.01,17.61,0,1.4.16,2.8.31,4.52-1.25-.31-2.65-.47-4.05-.47-10.74,0-18.7,7.47-18.7,17.61,0,2.34.31,4.98,1.09,8.1-.93-.16-1.87-.16-2.8-.16-5.29.31-10.12,2.34-13.56,6.54-3.41,4.05-4.81,10.28-2.17,18.85Z"/>
    <path class="cls-2" d="m136.8,165.01c-1.4-4.52-1.25-7.94.47-10.12,1.71-2.02,4.05-2.96,6.85-3.11,4.83-.16,6.7,3.27,9.5,12.14,1.71,5.61,5.14,13.72,7.16,18.23,2.65,5.45,6.38,12.77,8.1,15.27,1.4,2.18,2.65,2.8,4.05,2.8,2.49,0,4.36-1.4,4.36-3.89,0-1.4-1.4-3.74-2.18-5.14-1.4-2.65-4.36-7.94-6.38-12.46-2.18-4.98-4.67-11.21-6.7-16.83-1.25-3.27-2.65-7.94-4.05-12.61-2.18-7.16-3.27-11.52-3.27-14.81,0-4.98,3.74-8.25,9.34-8.25,4.05,0,6.7,2.02,8.41,9.34,1.4,6.7,3.89,17.61,7.47,26.17,2.34,5.61,5.76,13.09,7.78,16.83,1.25,2.18,2.65,4.05,2.65,4.83,0,1.09-2.02,2.8-3.74,5.14-1.09,1.4-1.56,2.34-1.56,3.43,0,.93.62,1.87,1.56,3.11.93,1.25,1.87,2.49,2.96,2.49.78,0,1.25-.31,1.71-.93,4.83-6.07,10.12-10.28,16.21-13.72,7.16-4.05,14.49-6.07,20.26-7.32,2.8-.62,3.58-1.25,3.58-2.8,0-1.87-1.4-2.96-3.27-3.11-1.4-.16-2.65,0-4.83.16-1.56.16-2.34-.62-3.27-2.65-2.8-5.92-8.25-15.9-11.52-28.66-1.4-5.45-2.65-11.21-3.43-18.7-.47-3.43.16-4.67,1.87-6.23,2.18-1.87,6.07-2.65,9.03-1.87,3.58.93,5.45,3.74,7.32,14.65.93,5.14,2.49,11.68,4.36,17.3,2.34,7.16,5.29,13.09,9.81,21.03,2.49,4.36,5.61,8.87,8.87,13.25-.62,1.87-1.71,3.11-5.29,6.07-3.58,2.96-7.16,6.07-10.43,11.83-2.34,4.2-3.43,8.87-3.43,11.99s.62,3.58,2.49,3.58c3.27,0,5.92-.62,6.07-2.02.78-5.61,1.71-9.19,4.83-13.4,1.87-2.34,5.14-5.29,7.78-7.63,4.98-4.05,6.7-6.38,8.41-12.14.78-2.65,1.71-5.14,2.96-7.47,2.96-5.45,8.25-11.68,16.52-11.68,2.65,0,4.83.78,6.23,2.96.78,1.25,1.09,2.96,1.09,4.2,0,2.8-2.02,6.7-2.96,8.56-3.43,7.32-9.03,18.54-9.03,31.47,0,28.2-9.96,42.22-17.76,49.39-7.63,7.16-19.63,13.4-33.8,13.4-10.12,0-20.57-2.96-29.13-8.56-11.99-7.94-19.48-20.41-27.11-32.87-6.07-10.12-10.28-18.08-16.83-33.49-3.69-8.93-7.13-17.65-10.09-27.15Z"/>
    <path class="cls-2" d="m176.84,112.83c0-5.92,5.45-8.25,9.96-8.25,4.83,0,6.54,2.34,7.78,7.32,1.09,4.05,1.56,7.78,2.02,12.14.62,4.36,2.8,14.34,3.43,16.83,2.34,8.56,7.01,18.7,12.61,30.84-3.27,1.09-7.63,2.96-10.59,4.52-3.74,2.02-4.52,2.02-6.07-.93-3.27-6.07-5.61-10.59-7.63-15.9-1.71-4.36-3.43-9.34-4.83-15.12-2.34-9.81-2.65-12.61-4.52-17.14-1.09-4.66-2.18-10.42-2.18-14.31Z"/>
    <path class="cls-3" d="m121.08,217.12c-3.3,2.04-20.78,11.2-24.73,12.65-2.82,1.05-5.87.79-7.67-4.53-2.21-6.58.89-8.14,5.31-9.85,3.91-1.51,20.11-7.37,23.88-8.39,2.65-.71,4.49.18,5.76,3.37,1.4,3.5.44,4.9-2.55,6.75"/>
    <path class="cls-3" d="m106.67,180.02c-4.7.13-24.22-.71-28.68-1.15-3.88-.38-5.45-2.09-5.02-7.71.45-6.03,2.8-6.4,6.61-6.03,4.42.42,24.87,3.75,28.12,4.76,3.37,1.05,3.84,2.58,3.43,5.52-.52,3.82-2.25,4.54-4.46,4.61"/>
    <path class="cls-3" d="m109.09,140.5c-5.38-1.7-21.34-11.37-25.51-13.86-3.77-2.26-4.25-4.3-1.63-9.27,2.32-4.39,4.9-5.15,8.72-3.17,4.43,2.31,20.07,14.48,23.06,16.89,2.89,2.32,2.49,3.52.98,6.51-1.51,2.99-2.93,3.75-5.62,2.9"/>
  </g>
</svg>