<?xml version="1.0" encoding="UTF-8"?>
<svg id="Layer_2" data-name="Layer 2" xmlns="http://www.w3.org/2000/svg" viewBox="0 0 373.33 373.33">
  <defs>
    <style>
      .cls-1 {
        fill: #fff;
      }

      .cls-2 {
        fill: #536dfe;
      }
    </style>
  </defs>
  <g id="Layer_1-2" data-name="Layer 1">
    <g>
      <circle class="cls-2" cx="186.67" cy="186.67" r="186.67" transform="translate(-77.32 186.67) rotate(-45)"/>
      <path class="cls-1" d="m261.91,121.83c-14.02-6.43-29.06-11.17-44.78-13.89-.28-.05-.57.08-.72.34-1.93,3.44-4.08,7.93-5.57,11.45-16.91-2.53-33.73-2.53-50.3,0-1.5-3.6-3.72-8.01-5.66-11.45-.15-.26-.43-.39-.72-.34-15.71,2.7-30.75,7.44-44.78,13.89-.12.05-.23.14-.3.25-28.52,42.61-36.34,84.18-32.5,125.22.02.2.13.39.28.52,18.81,13.82,37.04,22.21,54.94,27.77.29.08.59-.01.77-.25,4.23-5.78,8-11.87,11.24-18.28.19-.38,0-.82-.38-.97-5.98-2.27-11.68-5.03-17.16-8.18-.43-.25-.47-.87-.07-1.17,1.15-.87,2.31-1.77,3.41-2.67.2-.17.48-.2.71-.1,36.01,16.44,74.98,16.44,110.56,0,.24-.11.51-.08.72.08,1.1.91,2.26,1.81,3.41,2.68.4.29.38.91-.06,1.17-5.48,3.2-11.18,5.91-17.17,8.17-.39.15-.56.6-.38.98,3.3,6.4,7.08,12.49,11.23,18.27.17.24.49.35.77.26,17.98-5.56,36.21-13.95,55.02-27.77.17-.12.27-.31.28-.51,4.58-47.46-7.68-88.68-32.53-125.22-.06-.12-.16-.21-.28-.26Zm-112.73,100.48c-10.84,0-19.77-9.95-19.77-22.17s8.76-22.17,19.77-22.17,19.95,10.04,19.77,22.17c0,12.22-8.75,22.17-19.77,22.17Zm73.11,0c-10.84,0-19.77-9.95-19.77-22.17s8.76-22.17,19.77-22.17,19.95,10.04,19.77,22.17c0,12.22-8.67,22.17-19.77,22.17Z"/>
    </g>
  </g>
</svg>