<?xml version="1.0" encoding="UTF-8"?>
<svg id="Layer_2" data-name="Layer 2" xmlns="http://www.w3.org/2000/svg" viewBox="0 0 373.33 373.33">
  <defs>
    <style>
      .cls-1, .cls-2 {
        fill: #21ba52;
      }

      .cls-2, .cls-3 {
        fill-rule: evenodd;
      }

      .cls-3 {
        fill: #fff;
      }
    </style>
  </defs>
  <g id="Layer_1-2" data-name="Layer 1">
    <g>
      <circle class="cls-1" cx="186.67" cy="186.67" r="186.67" transform="translate(-77.32 186.67) rotate(-45)"/>
      <g>
        <path class="cls-3" d="m186.37,89.01c56.89,0,103.39,37.75,103.39,83.7,0,24.62-12.58,45.95-33.37,61.27-43.22,37.2-67.29,47.59-67.29,47.59-9.3,4.92-10.94,2.19-9.85-6.56,1.09-5.47,2.19-12.58,2.19-12.58,1.09-4.92-4.38-6.02-6.56-6.56h-1.09c-51.42-4.92-90.81-40.48-90.81-83.15,0-45.95,46.5-83.7,103.39-83.7h0Z"/>
        <path class="cls-2" d="m117.99,196.78h32.28v-8.75h-22.43v-37.75h-9.85v46.5Zm37.75,0h9.85v-46.5h-9.85v46.5Zm50.33-46.5v28.45l-21.88-28.45h-8.21v46.5h9.85v-27.9l21.88,27.9h8.21v-46.5h-9.85Zm30.09,38.29v-10.94h20.79v-8.21h-20.79v-10.39h20.79v-8.75h-30.63v46.5h30.63v-8.21h-20.79Z"/>
      </g>
    </g>
  </g>
</svg>