<?xml version="1.0" encoding="UTF-8"?>
<svg id="Layer_2" data-name="Layer 2" xmlns="http://www.w3.org/2000/svg" viewBox="0 0 373.33 373.33">
  <defs>
    <style>
      .cls-1 {
        fill: #0b66c3;
      }

      .cls-2 {
        fill: #fff;
        fill-rule: evenodd;
      }
    </style>
  </defs>
  <g id="Layer_1-2" data-name="Layer 1">
    <g>
      <circle class="cls-1" cx="186.67" cy="186.67" r="186.67" transform="translate(-77.32 186.67) rotate(-45)"/>
      <path class="cls-2" d="m94,153.35h37.1v124.57h-37.1v-124.57Zm18.32-63.2c12.37,0,22.44,10.08,22.44,22.44s-10.08,22.44-22.44,22.44-21.98-10.08-21.98-22.44,9.62-22.44,21.98-22.44h0Zm40.76,63.2h36.64v17.4c7.79-11.45,20.61-18.78,35.26-18.78h10.08c23.36,0,42.13,19.24,42.13,42.13v83.81h-36.64v-11.45h0v-55.87h0c-.46-14.2-10.08-25.19-24.27-25.19h0c-14.2,0-26.11,10.99-26.56,25.19h0v67.32h-36.64v-124.57Z"/>
    </g>
  </g>
</svg>