<?xml version="1.0" encoding="UTF-8"?>
<svg id="Layer_2" data-name="Layer 2" xmlns="http://www.w3.org/2000/svg" viewBox="0 0 373.33 373.33">
  <defs>
    <style>
      .cls-1 {
        fill: #e60023;
      }

      .cls-2 {
        fill: #fff;
      }
    </style>
  </defs>
  <g id="Layer_1-2" data-name="Layer 1">
    <g>
      <circle class="cls-1" cx="186.67" cy="186.67" r="186.67" transform="translate(-77.32 186.67) rotate(-45)"/>
      <path class="cls-2" d="m195.94,78.69c-60.83,0-93.12,40.83-93.12,85.28,0,20.67,11,46.4,28.61,54.6,2.67,1.24,4.1.7,4.71-1.88.47-1.96,2.85-11.53,3.91-15.98.34-1.42.17-2.64-.98-4.04-5.83-7.07-10.49-20.05-10.49-32.16,0-31.09,23.53-61.16,63.63-61.16,34.62,0,58.86,23.59,58.86,57.33,0,38.12-19.25,64.53-44.3,64.53-13.83,0-24.19-11.44-20.87-25.47,3.98-16.75,11.68-34.82,11.68-46.92,0-10.82-5.8-19.85-17.83-19.85-14.14,0-25.5,14.62-25.5,34.22,0,12.47,4.22,20.92,4.22,20.92,0,0-13.97,59.06-16.53,70.05-2.83,12.14-1.73,29.18-.5,40.33h0c3.18,1.25,6.36,2.49,9.64,3.51h0c5.76-9.36,14.34-24.7,17.52-36.94,1.72-6.6,8.79-33.5,8.79-33.5,4.59,8.76,18.01,16.18,32.29,16.18,42.5,0,73.13-39.09,73.13-87.66s-37.99-81.4-86.88-81.4Z"/>
    </g>
  </g>
</svg>