<?xml version="1.0" encoding="UTF-8"?>
<svg id="Layer_2" data-name="Layer 2" xmlns="http://www.w3.org/2000/svg" viewBox="0 0 373.33 373.33">
  <defs>
    <style>
      .cls-1 {
        fill: #fff;
      }

      .cls-2 {
        fill: #ff4500;
      }
    </style>
  </defs>
  <g id="Layer_1-2" data-name="Layer 1">
    <g>
      <circle class="cls-2" cx="186.67" cy="186.67" r="186.67" transform="translate(-77.32 186.67) rotate(-45)"/>
      <path class="cls-1" d="m216.64,182.36c-7.96,0-14.42,6.45-14.43,14.41,0,7.96,6.45,14.42,14.41,14.43h.01c7.96,0,14.42-6.45,14.43-14.41,0-7.96-6.45-14.42-14.41-14.43h-.01Zm-63.65,0c-7.96,0-14.42,6.45-14.43,14.41,0,7.96,6.45,14.42,14.41,14.43h.01c7.96,0,14.42-6.45,14.43-14.41,0-7.96-6.45-14.42-14.41-14.43h-.01Z"/>
      <g>
        <path class="cls-1" d="m184.83,247.18c-20.14,0-38.02-4.48-49.55-11.44,6.34,12.29,25.98,24.06,49.55,24.06s43.2-11.76,49.53-24.06c-11.5,6.96-29.39,11.44-49.53,11.44Zm110.4-47.37l-7.25-9.75c5.15-3.61,8.5-9.36,9.21-15.78.65-5.89-.97-11.45-4.46-15.22-3.54-3.83-8.61-5.95-14.29-5.98-5.74.08-11.73,2.2-16.39,6.26l-8.27-8.95c6.95-6.06,15.76-9.16,24.71-9.34,9.21.04,17.54,3.58,23.44,9.97,5.83,6.31,8.59,15.26,7.56,24.54-1.08,9.8-6.29,18.64-14.28,24.24Zm-220.83,0c-7.99-5.61-13.2-14.44-14.28-24.24-1.03-9.28,1.73-18.22,7.56-24.53,5.9-6.39,14.22-9.93,23.44-9.97h.17c8.92,0,17.64,3.31,24.55,9.34l-8.27,8.95c-4.66-4.07-10.46-6.04-16.39-6.26-5.67.02-10.74,2.15-14.28,5.98-3.49,3.78-5.11,9.32-4.46,15.22.71,6.42,4.07,12.17,9.21,15.78l-7.25,9.74Zm116.61-61.26h-12.38c0-17.35,0-63.44,30.83-63.44,13.34,0,19.77,7.28,24.47,12.61,3.9,4.41,5.95,6.53,10.01,6.53h8.48v12.03h-8.48c-9.93,0-15.19-5.95-19.41-10.74-4.15-4.7-7.42-8.41-15.07-8.41-12.4,0-18.44,16.82-18.44,51.42Z"/>
        <path class="cls-1" d="m185.34,139.21c58.34,0,105.8,31.46,105.8,70.13s-47.46,70.14-105.8,70.14-105.8-31.46-105.8-70.14,47.46-70.13,105.8-70.13m0-12.03c-65.27,0-118.18,36.78-118.18,82.16s52.91,82.17,118.18,82.17,118.18-36.78,118.18-82.17-52.91-82.16-118.18-82.16h0Zm88.15-41.95c8.54,0,15.48,6.75,15.48,15.04s-6.94,15.04-15.48,15.04-15.48-6.75-15.48-15.04,6.94-15.04,15.48-15.04m0-12.03c-15.38,0-27.87,12.12-27.87,27.06s12.48,27.06,27.87,27.06,27.87-12.12,27.87-27.06-12.47-27.06-27.87-27.06h0Z"/>
      </g>
    </g>
  </g>
</svg>