<?xml version="1.0" encoding="UTF-8"?>
<svg id="Layer_2" data-name="Layer 2" xmlns="http://www.w3.org/2000/svg" xmlns:xlink="http://www.w3.org/1999/xlink" viewBox="0 0 373.33 373.33">
  <defs>
    <style>
      .cls-1 {
        fill: url(#linear-gradient);
      }

      .cls-2 {
        fill: url(#linear-gradient-3);
      }

      .cls-2, .cls-3, .cls-4, .cls-5 {
        fill-rule: evenodd;
      }

      .cls-3 {
        fill: url(#linear-gradient-2);
      }

      .cls-4 {
        fill: url(#linear-gradient-4);
      }

      .cls-5 {
        fill: url(#linear-gradient-5);
      }
    </style>
    <linearGradient id="linear-gradient" x1="186.67" y1="0" x2="186.67" y2="373.33" gradientTransform="translate(186.67 -77.32) rotate(45)" gradientUnits="userSpaceOnUse">
      <stop offset="0" stop-color="#00b7ea"/>
      <stop offset="1" stop-color="#017ddf"/>
    </linearGradient>
    <linearGradient id="linear-gradient-2" x1="141.14" y1="78.34" x2="141.14" y2="203.4" gradientUnits="userSpaceOnUse">
      <stop offset="0" stop-color="#fff"/>
      <stop offset="1" stop-color="#f1f2f2"/>
    </linearGradient>
    <linearGradient id="linear-gradient-3" x1="235.76" y1="177.07" x2="235.76" y2="295" xlink:href="#linear-gradient-2"/>
    <linearGradient id="linear-gradient-4" x1="188.04" y1="82.72" x2="188.04" y2="292.8" xlink:href="#linear-gradient-2"/>
    <linearGradient id="linear-gradient-5" x1="186.22" y1="128.48" x2="186.22" y2="245.49" gradientTransform="matrix(1,0,0,1,0,0)" xlink:href="#linear-gradient"/>
  </defs>
  <g id="Layer_1-2" data-name="Layer 1">
    <g>
      <circle class="cls-1" cx="186.67" cy="186.67" r="186.67" transform="translate(-77.32 186.67) rotate(-45)"/>
      <g>
        <g>
          <path class="cls-3" d="m141.14,78.34c34.56,0,62.53,27.97,62.53,62.53s-27.97,62.53-62.53,62.53-62.53-27.97-62.53-62.53,27.97-62.53,62.53-62.53h0Z"/>
          <path class="cls-2" d="m236.03,295c-32.36,0-59.24-26.33-59.24-58.69s26.88-59.24,59.24-59.24,58.69,26.88,58.69,59.24-26.33,58.69-58.69,58.69h0Z"/>
          <path class="cls-4" d="m187.76,82.72c58.14,0,105.31,47.17,105.31,104.77s-47.17,105.31-105.31,105.31-104.77-47.17-104.77-105.31,47.17-104.77,104.77-104.77h0Z"/>
        </g>
        <path class="cls-5" d="m176.79,194.62c8.23,3.29,15.91,5.48,21.94,11.52,9.87,9.87,2.19,21.39-13.16,21.39-12.07.55-32.36-15.36-38.4-2.19-8.78,18.65,32.91,21.39,47.17,19.75,16.46-2.19,26.33-8.78,30.17-21.39,10.42-34.56-23.04-40.04-45.53-52.11-7.68-4.39-12.62-12.07-7.68-18.1,8.78-11.52,25.23-5.48,36.75-2.19,20.84,6.03,25.23-26.33-25.78-22.49-17.55,1.65-29.62,8.23-34.01,21.94-7.13,21.39,8.78,36.2,28.52,43.88h0Z"/>
      </g>
    </g>
  </g>
</svg>