<?xml version="1.0" encoding="UTF-8"?>
<svg id="Layer_2" data-name="Layer 2" xmlns="http://www.w3.org/2000/svg" viewBox="0 0 373.33 373.33">
  <defs>
    <style>
      .cls-1 {
        fill: #ff0;
      }

      .cls-2 {
        fill: #fff;
      }

      .cls-2, .cls-3 {
        fill-rule: evenodd;
      }
    </style>
  </defs>
  <g id="Layer_1-2" data-name="Layer 1">
    <g>
      <circle class="cls-1" cx="186.67" cy="186.67" r="186.67" transform="translate(-77.32 186.67) rotate(-45)"/>
      <g>
        <path class="cls-3" d="m188.15,78.92c10.37,0,68.22,3.27,64.4,72.58,0,0,18.01-1.64,24.01,9.28,0,0,13.64,20.74-23.47,35.47,0,0,8.19,20.74,36.56,34.38,0,0,12.55,4.91,7.64,16.92,0,0-1.09,6.55-20.74,13.64q-6,2.18-7.64,6.55c-2.18,5.46-10.37,11.46-28.92,9.28,0,0-6.55-1.09-12.01,4.37,0,0-15.83,13.64-39.84,14.19-23.47-.55-39.84-14.19-39.84-14.19-5.46-5.46-11.46-4.37-11.46-4.37-19.1,2.18-26.74-3.82-28.92-9.28q-2.18-4.37-7.64-6.55c-20.19-7.09-20.74-13.64-20.74-13.64-4.91-12.01,7.09-16.92,7.09-16.92,28.38-13.64,37.11-34.38,37.11-34.38-37.11-14.74-23.47-35.47-23.47-35.47,6-10.91,23.47-9.28,23.47-9.28-3.27-69.31,54.57-72.58,64.4-72.58h0Z"/>
        <path class="cls-2" d="m188.15,91.47h0c57.85,4.37,52.94,45.84,51.85,79.13,0,0,3.27,1.09,15.28-5.46,0,0,6.55-4.37,11.46.55,0,0,6,6.55-6,13.1l-19.65,14.19s0,28.38,45.84,49.66c0,0-1.09,4.91-23.47,9.28,0,0-3.82,1.09-6,9.82-1.64,5.46-12.55,3.27-18.01,3.27,0,0-11.46,0-23.47,10.37,0,0-12.01,7.64-27.83,8.73h0c-15.83-1.09-27.29-8.73-27.29-8.73-12.01-10.37-24.01-10.37-24.01-10.37-4.91,0-16.37,2.18-17.46-3.27-2.18-8.73-6.55-9.82-6.55-9.82-22.38-4.37-23.47-9.28-23.47-9.28,45.84-21.28,45.84-49.66,45.84-49.66l-19.65-14.19c-11.46-6.55-5.46-13.1-5.46-13.1,4.91-4.91,11.46-.55,11.46-.55,12.01,6.55,15.28,5.46,15.28,5.46-1.64-33.29-6-74.77,51.3-79.13h0Z"/>
      </g>
    </g>
  </g>
</svg>