<?xml version="1.0" encoding="UTF-8"?>
<svg id="Layer_2" data-name="Layer 2" xmlns="http://www.w3.org/2000/svg" xmlns:xlink="http://www.w3.org/1999/xlink" viewBox="0 0 373.33 373.33">
  <defs>
    <style>
      .cls-1 {
        fill: url(#linear-gradient);
      }

      .cls-2 {
        fill: #fff;
        fill-rule: evenodd;
      }
    </style>
    <linearGradient id="linear-gradient" x1="186.67" y1="0" x2="186.67" y2="373.33" gradientUnits="userSpaceOnUse">
      <stop offset="0" stop-color="#39aef0"/>
      <stop offset="1" stop-color="#259ed8"/>
    </linearGradient>
  </defs>
  <g id="Layer_1-2" data-name="Layer 1">
    <g>
      <circle class="cls-1" cx="186.67" cy="186.67" r="186.67"/>
      <path class="cls-2" d="m90.29,183.63c43.45-18.22,96.02-44.15,141.58-61.68,42.05-15.42,41.35-11.21,35.04,30.84-4.91,33.64-10.51,67.28-16.12,100.93-2.1,16.12-10.51,24.53-28.03,14.72l-54.67-38.55c-7.71-6.31-5.61-11.21.7-17.52l50.46-47.66c13.32-13.32,7.01-18.22-8.41-7.71l-69.39,46.96c-9.81,7.01-20.33,7.01-31.54,3.5l-23.83-8.41c-15.42-5.61-3.5-11.91,4.21-15.42h0Z"/>
    </g>
  </g>
</svg>