<?xml version="1.0" encoding="UTF-8"?>
<svg id="Layer_2" data-name="Layer 2" xmlns="http://www.w3.org/2000/svg" viewBox="0 0 373.33 373.33">
  <defs>
    <style>
      .cls-1 {
        fill: #23f1e7;
      }

      .cls-1, .cls-2, .cls-3 {
        fill-rule: evenodd;
      }

      .cls-2 {
        fill: #ff2e56;
      }

      .cls-3 {
        fill: #fff;
      }
    </style>
  </defs>
  <g id="Layer_1-2" data-name="Layer 1">
    <g>
      <circle cx="186.67" cy="186.67" r="186.67"/>
      <g>
        <path class="cls-2" d="m169.02,163.94h-1.35v27.99c-3.16-.9-5.87-1.35-9.03-1.35-17.15,0-30.69,13.54-30.69,30.24,0,11.28,6.77,21.67,16.25,26.63-3.61-4.97-5.42-11.28-5.42-17.6,0-16.7,13.54-30.24,30.24-30.24,3.16,0,6.32.45,9.03,1.35v-36.11c-2.71-.45-5.87-.9-9.03-.9h0Zm-48.3,110.59c12.19,12.64,29.34,20.76,48.3,20.76,36.56,0,66.35-29.34,66.35-65.45v-74.03c13.54,12.19,31.15,18.06,49.2,16.7v-35.66c-3.61.9-7.22.9-10.38,0v26.63c-18.06,1.35-36.11-4.51-49.65-16.7v74.03c0,36.11-29.34,65.45-65.9,65.45-13.99,0-27.08-4.51-37.92-11.74h0Zm127.74-152.57c-8.58-9.48-13.54-22.12-13.09-34.3h-9.93c2.26,13.54,11.28,27.08,23.02,34.3h0Z"/>
        <path class="cls-1" d="m158.63,154.91c-36.56,0-66.35,29.34-66.35,65.9,0,22.12,11.28,41.98,28.44,53.71-10.83-11.74-17.6-27.53-17.6-44.69,0-35.66,28.44-65,64.55-65.9v-8.12c-3.16-.45-5.87-.9-9.03-.9h0Zm115.55-18.06v-9.03c-9.03,1.81-18.06-.9-25.73-5.87,7.22,8.12,15.8,13.54,25.73,14.9h0Zm-48.75-49.2c-.45-3.16-.9-5.87-.9-9.03h-35.66v142.18h0c0,16.7-13.54,30.24-30.24,30.24-5.42,0-9.93-1.35-14.44-3.61,5.87,7.67,14.9,12.64,24.83,12.64,17.15,0,30.69-13.54,30.69-30.24h0V87.66h25.73Z"/>
        <path class="cls-3" d="m120.72,274.53c10.83,7.22,23.92,11.74,37.92,11.74,36.56,0,65.9-29.34,65.9-65.45v-74.03c13.54,12.19,31.6,18.06,49.65,16.7v-26.63c-9.93-1.35-18.51-6.77-25.73-14.9-11.74-7.22-20.76-20.76-23.02-34.3h-25.73v142.18h0c0,16.7-13.54,30.24-30.69,30.24-9.93,0-18.96-4.97-24.83-12.64-9.48-4.97-16.25-15.35-16.25-26.63,0-16.7,13.54-30.24,30.69-30.24,3.16,0,5.87.45,9.03,1.35v-27.99c-36.11.9-64.55,30.24-64.55,65.9,0,17.15,6.77,32.95,17.6,44.69h0Z"/>
      </g>
    </g>
  </g>
</svg>