<?xml version="1.0" encoding="UTF-8"?>
<svg id="Layer_2" data-name="Layer 2" xmlns="http://www.w3.org/2000/svg" xmlns:xlink="http://www.w3.org/1999/xlink" viewBox="0 0 373.33 373.33">
  <defs>
    <style>
      .cls-1 {
        fill: url(#linear-gradient);
      }

      .cls-2 {
        fill: #fff;
        fill-rule: evenodd;
      }
    </style>
    <linearGradient id="linear-gradient" x1="186.67" y1="0" x2="186.67" y2="373.33" gradientUnits="userSpaceOnUse">
      <stop offset="0" stop-color="#42ef62"/>
      <stop offset="1" stop-color="#19cb3c"/>
    </linearGradient>
  </defs>
  <g id="Layer_1-2" data-name="Layer 1">
    <g>
      <circle class="cls-1" cx="186.67" cy="186.67" r="186.67"/>
      <path class="cls-2" d="m186.67,76.87c59.94,0,108.33,48.39,108.33,108.33s-48.39,108.33-108.33,108.33c-16.5,0-31.89-3.85-45.64-9.9l-57.74,9.9,7.7-57.19-.55-1.1c-7.7-14.85-12.1-31.89-12.1-50.04,0-59.94,48.39-108.33,108.33-108.33h0Zm-29.69,59.94h39.59s28.59-1.1,29.14,25.85c0,0,1.1,12.1-12.1,19.8,0,0,14.3,6.05,14.3,23.1,0,0,0,29.69-35.19,26.4h-36.29c-1.65,0-2.75-1.1-2.75-2.75v-9.35h0v-30.24h0v-10.45h0v-30.24h0v-9.9c0-1.1,1.1-2.2,2.75-2.2h.55Zm39.59,14.85h-24.75v24.75h19.25c3.3,0,17.6-1.1,18.7-13.2,0,0-.55-9.9-13.2-11.55h0Zm-2.75,40.69h-22v24.75h18.7c8.25,0,19.25-2.75,19.25-13.2,0,0-.55-11.55-15.95-11.55h0Zm-75.34,76.99l15.4-2.75,9.35-1.65c13.2,7.15,28.04,11,43.44,11,50.04,0,90.73-40.69,90.73-90.73s-40.69-90.73-90.73-90.73-90.73,40.69-90.73,90.73c0,18.15,5.5,34.64,14.3,48.94l-1.1,8.25-2.2,15.95-1.65,13.2,13.2-2.2Z"/>
    </g>
  </g>
</svg>