<?xml version="1.0" encoding="UTF-8"?>
<svg id="Layer_2" data-name="Layer 2" xmlns="http://www.w3.org/2000/svg" xmlns:xlink="http://www.w3.org/1999/xlink" viewBox="0 0 373.33 373.33">
  <defs>
    <style>
      .cls-1 {
        fill: url(#linear-gradient);
      }

      .cls-2 {
        fill: #fff;
        fill-rule: evenodd;
      }
    </style>
    <linearGradient id="linear-gradient" x1="186.67" y1="0" x2="186.67" y2="373.33" gradientUnits="userSpaceOnUse">
      <stop offset="0" stop-color="#42ef62"/>
      <stop offset="1" stop-color="#19cb3c"/>
    </linearGradient>
  </defs>
  <g id="Layer_1-2" data-name="Layer 1">
    <g>
      <circle class="cls-1" cx="186.67" cy="186.67" r="186.67"/>
      <path class="cls-2" d="m148.17,137.74c6.05-3.85,9.9-1.1,12.1,4.95l5.5,14.3s3.85,7.7-6.05,15.4q-1.65,1.1-1.1,3.85c2.2,6.6,11,26.4,39.04,41.79,2.75,1.65,3.3,1.65,6.05-.55,2.2-2.2,4.95-4.95,7.15-7.15,4.95-4.4,7.7-6.05,12.1-2.75,3.3,2.2,6.6,4.95,9.9,7.15,3.3,2.75,8.8,6.05,3.3,12.65l-4.95,6.05c-7.15,8.8-13.2,9.35-22.55,7.15-35.74-9.35-62.14-34.64-73.69-70.39-3.85-13.75,1.65-25.3,13.2-32.44h0Zm38.49-58.84c59.94,0,108.33,48.39,108.33,108.33s-48.39,108.33-108.33,108.33c-16.5,0-31.89-3.3-45.64-9.9l-57.74,9.9,7.7-57.19-.55-1.1c-7.7-14.85-12.1-31.89-12.1-50.04,0-59.94,48.39-108.33,108.33-108.33h0Zm-68.19,192.47l15.4-2.75,9.35-1.65c13.2,7.15,27.5,11,43.44,11,71.28,0,123.59-82.55,66.36-157.09-74.54-57.23-157.09-4.92-157.09,66.36,0,18.15,5.5,34.64,14.3,48.94l-1.1,8.25-2.2,16.5-1.65,12.65,13.2-2.2Z"/>
    </g>
  </g>
</svg>