<?xml version="1.0" encoding="UTF-8"?>
<svg id="Layer_2" data-name="Layer 2" xmlns="http://www.w3.org/2000/svg" viewBox="0 0 373.33 373.33">
  <defs>
    <style>
      .cls-1, .cls-2 {
        fill: #fe0000;
      }

      .cls-3 {
        fill: #fff;
      }

      .cls-3, .cls-2 {
        fill-rule: evenodd;
      }
    </style>
  </defs>
  <g id="Layer_1-2" data-name="Layer 1">
    <g>
      <circle class="cls-1" cx="186.67" cy="186.67" r="186.67"/>
      <g>
        <path class="cls-3" d="m122.79,113.04c20.83-1.67,45.42-2.5,64.17-2.5h0c18.75,0,42.92.83,64.16,2.5,24.58,2.08,37.08,6.25,40.42,30.83,1.67,11.25,2.5,26.67,2.5,42.5h0c0,15.83-.83,31.67-2.5,42.5-3.33,25-15.83,28.75-40.42,30.83-21.25,2.08-45.42,2.5-64.16,2.5h0c-18.75,0-43.33-.42-64.17-2.5-24.58-2.08-37.5-5.83-40.83-30.83-1.25-10.83-2.08-26.67-2.08-42.5h0c0-15.83.83-31.25,2.08-42.5,3.33-24.58,16.25-28.75,40.83-30.83h0Z"/>
        <polygon class="cls-2" points="165.29 154.29 221.13 186.37 165.29 218.87 165.29 154.29"/>
      </g>
    </g>
  </g>
</svg>