<svg xmlns="http://www.w3.org/2000/svg" width="171" height="73" fill="none" xmlns:v="https://vecta.io/nano"><path fill-rule="evenodd" d="M67.568.877H28.593c-.815 0-1.597.325-2.174.902a3.09 3.09 0 0 0-.903 2.178v13.401c-2.323-.721-4.573-1.691-6.708-2.899-5.119-2.896-9.41-7.063-12.46-12.101a3.08 3.08 0 0 0-.812-.886A3.07 3.07 0 0 0 4.449.965a3.07 3.07 0 0 0-2.326.361 3.08 3.08 0 0 0-.884.814 3.09 3.09 0 0 0-.506 1.091 3.09 3.09 0 0 0 .36 2.333c3.604 5.95 8.675 10.869 14.725 14.283a40.37 40.37 0 0 0 9.699 3.919v46.021a3.09 3.09 0 0 0 .901 2.177 3.07 3.07 0 0 0 2.171.903l16.733.006c.404 0 .804-.08 1.177-.235s.712-.382.997-.669a3.08 3.08 0 0 0 .666-1.001 3.09 3.09 0 0 0 .233-1.18V30.301a3.09 3.09 0 0 0-.901-2.181 3.07 3.07 0 0 0-4.35 0 3.09 3.09 0 0 0-.901 2.181v36.405H31.661V24.862c1.317.131 2.643.197 3.974.198a40.35 40.35 0 0 0 19.822-5.195c6.053-3.409 11.129-8.324 14.738-14.27.294-.483.45-1.039.449-1.605v-.029a3.08 3.08 0 0 0-.235-1.178 3.07 3.07 0 0 0-.65-.98l-.024-.024a3.07 3.07 0 0 0-2.175-.903l.008.001zM61.55 7.044H31.661v11.616c1.298.153 2.607.231 3.921.234a34.21 34.21 0 0 0 16.791-4.365c3.481-1.95 6.583-4.486 9.177-7.485zm5.251 29.83c4.693 0 8.298 1.432 10.817 4.296 2.553 2.829 3.83 6.867 3.83 12.111 0 5.728-1.38 10.145-4.141 13.25s-6.66 4.658-11.697 4.658c-4.658 0-8.264-1.449-10.817-4.348-2.519-2.933-3.778-7.074-3.778-12.422 0-5.624 1.363-9.955 4.089-12.991 2.76-3.036 6.66-4.555 11.697-4.555zm-.621 5.642c-2.76 0-4.762.863-6.004 2.588s-1.863 4.537-1.863 8.436c0 4.451.604 7.626 1.812 9.523 1.242 1.898 3.278 2.847 6.107 2.847 2.76 0 4.762-.863 6.004-2.588 1.242-1.76 1.863-4.624 1.863-8.592 0-4.382-.621-7.505-1.863-9.368-1.208-1.898-3.226-2.847-6.056-2.847zm47.963 17.856l.259 10.3h-7.557L93.233 48.105h-.414l-.052 11.076.207 11.49h-6.366l.362-9.834-.31-23.498h7.505l13.612 22.566h.466l-.156-22.256 6.47-.414-.414 23.136zm29.828 5.072l-.414-.569-8.229.311-5.849-.052-.155-5.02.052-3.571 5.331-.052 5.9.155.466-5.227-.414-.518-5.435.155-5.745-.103.156-8.022 6.004-.052 7.97.259.518-5.227-.414-.569h-21.117l.362 23.394-.362 9.938h20.91l.465-5.228zm26.231-27.535l-.414 5.227-6.263-.311h-2.07l-.259 17.287.31 10.559h-7.039l.363-9.937-.259-17.908h-2.07l-6.367.311-.465-.569.465-5.228h23.654l.414.569z" fill="url(#A)"/><path style="mix-blend-mode:multiply" d="M25.517 39.327h6.152V24.873c-2.075-.202-4.132-.563-6.152-1.082v15.536z" fill="url(#B)"/><defs><linearGradient id="A" x1="13.391" y1="-.322" x2="182.325" y2="16.096" gradientUnits="userSpaceOnUse"><stop stop-color="#8f63f2"/><stop offset=".999" stop-color="#30c7cf"/></linearGradient><linearGradient id="B" x1="28.593" y1="39.11" x2="28.593" y2="24.739" gradientUnits="userSpaceOnUse"><stop stop-color="#fff"/><stop offset=".999" stop-color="#272525"/></linearGradient></defs></svg>